<?xml version="1.0" encoding="UTF-8"?>
<svg id="Capa_2" data-name="Capa 2" xmlns="http://www.w3.org/2000/svg" viewBox="0 0 1810.45 765.33">
  <defs>
    <style>
      .cls-1 {
        fill: #fff;
      }
    </style>
  </defs>
  <g id="Capa_1-2" data-name="Capa 1">
    <g>
      <path class="cls-1" d="m707.65,497.09c3.97.75,3.78,2.67,2.58,5.22-15.01,31.83-32.1,62.4-52.97,90.85-27.13,36.98-58.93,68.98-97.05,94.78-20.71,14.02-41.16,28.53-63.77,39.21-22.53,10.64-45.14,21.54-70.16,25.67-8.21,1.35-16.31,3.38-24.49,4.95-1.65.32-4.2,1.43-4.93-.64-.71-2.01,2.21-1.86,3.37-2.87,7.02-6.12,14.47-11.85,20.33-19.13,15.88-19.7,30.97-39.86,43.1-62.3,9.34-17.27,18.43-34.7,27.34-52.17,8.14-15.95,14.76-32.84,19.34-50.23,6.4-24.28,13.61-48.48,16.12-73.54,2.04-20.35,2.42-40.86,3.59-61.3,2.62-45.54,5.82-91.02,14.27-135.95.46-2.45.7-4.94.87-7.43.36-5.2-.68-5.8-5.77-4.02-9.52,3.33-16.82,8.89-21.35,18.28-7.52,15.6-15.64,30.98-25.11,45.44-14.78,22.57-25.59,47.46-41.4,69.38-2.74,3.81-2.25,6.81,1.29,9.96,4.96,4.42,9.7,9.13,14.27,13.96,7.8,8.24,17.27,13.4,28.17,16.24,3.54.92,7.08,1.98,10.41,3.47,10.06,4.48,12.05,7.56,11.31,18.54-1,14.83-3.37,29.53-7.96,43.63-5.62,17.26-9.74,34.94-15.7,52.1-8.56,24.62-19.64,48.04-32.44,70.71-2.39,4.24-6.38,6.17-10.24,8.42-1.21.7-2.74.86-3.84.06-4.65-3.37-10.08-6.03-11.54-12.43-2.06-9.05-3.81-18.1-7.18-26.91-3.38-8.86-2.37-18.78-2.62-28.22-1.14-42.42-2.83-84.84-2.37-127.29.05-4.99.36-9.97.7-14.95,1.05-15.15,1-30.45-1.99-45.25-2.41-11.96-6.62-23.69-11.63-34.97-7.04-15.82-14.21-31.58-23.5-46.26-3.77-5.95-8.29-11.27-13.8-15.68-9.56-7.64-15.35-7.07-22.69,2.59-7.82,10.29-12.58,22.28-18.26,33.75-13.42,27.12-20.41,56.11-25.99,85.67-4.41,23.36-4.39,47-6.78,70.47-1.21,11.93.22,23.99-2.1,35.83-.1.48-.11,1-.07,1.49,1.35,16.56.32,33.16-.04,49.69-.46,20.92-.67,41.88-1.78,62.79-.33,6.18-1.93,7.33-7.78,5.22-3.92-1.41-6.18-.29-6.95,3.69-.77,4.01-3.03,4.86-6.52,3.35-1.67-.72-3.59-1.25-4.87-2.44-5.83-5.44-12.38-10.43-17-16.79-9.28-12.77-17.92-26.03-25.69-39.84-10.64-18.9-14.78-39.33-16.14-60.71-1.97-30.91-3.43-61.82-2.87-92.8.52-29.16,2.8-58.21,7.57-86.97,1.78-10.75,4.29-21.1.62-31.91-2.49-7.32-6-14.04-9.94-20.63-6.58-10.99-12.99-22.09-19.58-33.08-11.28-18.82-16.95-39.8-22.74-60.6-9.34-33.58-16.12-67.74-16.74-102.75-.41-22.99.32-45.96,7.12-68.25,8.76-28.75,24.63-40.18,54.74-38.9,28.2,1.2,56.03,5.22,83.58,11.39,19.03,4.26,37.61,10.22,56.62,14.56,14.85,3.39,29.15,1.61,43.45-2.09,16.92-4.38,33.81-8.93,50.63-13.67,10.25-2.89,20.3-6.49,30.55-9.37,20.45-5.74,41.48-8.07,62.31-4.3,18.18,3.29,30.43,15.22,37.5,32.6,11.83,29.07,11.76,59.45,10.74,89.98-.6,17.99-3.19,35.79-5.16,53.65-.44,4.02-.24,7.94,1.74,11.66,9.96,18.68,17.36,38.53,26.33,57.65,9.83,20.94,16.67,43.16,27.66,63.57,1.73,3.22,3.56,6.4,5.43,9.55.65,1.1,1.17,2.75,2.73,2.59,1.83-.19,1.35-2.03,1.56-3.23,1.29-7.39,1.95-14.85,2.01-22.34.23-28.4,14.65-47.34,39.05-60.24,15.28-8.08,31.6-10.17,48.38-10.14,50.65.09,101.31.42,151.96.56,4.06.01,5.76,1.63,5.73,5.61-.17,27.3,1.37,54.68-1.23,81.86-2.33,24.36-16.6,41.18-38.55,51.48-14.2,6.66-29.14,10.23-44.96,10.19-23.66-.06-47.31.5-70.94,1.96-12.67.78-13.56,1.57-10.76,13.97,3.37,14.91,4.06,29.96,3.81,45.15-.05,2.82-1.24,4.58-3.01,6.32,2.56,1.69,2.07,4.29,2.05,6.77-.02,2.41-1.76,3.82-3.02,5.56-2.81,3.9-2.28,6.11,2.15,7.83,2.48.96,2.63,2.78,2.64,4.78,0,4.49-.07,8.99-.2,13.48-.21,7.59-2.37,10.36-9.79,12.19-3.55.88-7.2,1.38-11.77,2.24Zm80.85-235.06c-15.32,0-30.64-.16-45.95.06-8.99.13-18.01.79-26.74,3.1-6.53,1.73-12.59,4.56-16.12,10.84-2.18,3.88-.81,8.25,3.36,9.22,4.01.94,5.34,3.35,6.12,6.85.76,3.4,1.93,6.71,2.75,10.11,2.24,9.22,4.43,18.48,4.05,28.05-.33,8.31-.09,8.87,7.99,9.33,29.28,1.67,58.59,1.58,87.89,1.13,19.14-.29,31.98-11.85,33.72-30.76,1.27-13.88.88-27.91,1.19-41.87.09-4.22-1.81-6.22-6.32-6.42-17.32-.75-34.63-.26-51.94.35Z"/>
      <path class="cls-1" d="m346.83,765.33c-20.44-1.53-40.47-4.72-60.45-8.63-26.07-5.11-50.66-14.3-74.44-25.69-22.59-10.82-43.8-24.08-63.48-39.59-29.3-23.09-55.58-49.21-77.94-79.16-18.47-24.75-31.71-52.14-43.15-80.76-13.98-34.99-21.29-71.36-26.38-108.37-1.36-9.88-1.51-19.87.73-29.8,2.04-9.01,7.09-14.69,16.04-17.23,5.09-1.45,9.21-.65,12.49,3.54,11.5,14.7,19.95,30.65,21.01,49.79.54,9.8,1.4,19.59,2.19,29.38.35,4.32.71,8.7,3.04,12.51,11.82,19.34,20.57,40.37,32.57,59.58,13.03,20.85,27.79,40.26,49.18,53.68,9.1,5.71,18.1,8.85,28.75,4.81,12.3-4.67,21.99-.11,31.23,8.35,12.83,11.75,22.42,25.93,31.88,40.17,15.43,23.24,35.16,42.07,57.34,58.61,3.92,2.93,8.37,4.8,13.12,5.94,5.8,1.39,7.63.27,8.36-5.77.82-6.77,1.58-13.5,3.16-20.19,2.41-10.2,8.49-16.53,18.09-20.26,8.52-3.31,17.36-4.65,26.34-5.43,7.13-.62,14.31-1.45,21.44-1.21,12.8.42,25.23-1.62,37.67-4.05,1.82-.36,3.5-.95,5.13-1.85,4.01-2.21,5.43-1.48,5.28,3.18-.56,17.98-1.75,35.92-5.14,53.61-1.71,8.92-7.45,15.9-12.32,23.23-6.9,10.4-14.01,20.64-22.4,29.95-4.3,4.77-9.3,8.13-15.62,9.15-7.89,1.29-15.84,2.18-23.72,2.49Z"/>
      <path class="cls-1" d="m1046.4,227.66c37.82,0,75.65,0,113.47,0,7.93,0,8.35.35,8.21,8.06-.17,9.15-.59,18.3-.86,27.45-.7,24.17-13.65,39.55-35.13,48.7-6.91,2.95-14.16,4.88-21.6,6.09-1.71.28-4.17-.13-4.72,1.98-.55,2.07,1.76,3.04,3.07,4.15,18.14,15.42,36.36,30.76,54.52,46.16,2.07,1.76,6.05,3.29,4.95,6.12-1.05,2.71-5.09,1.33-7.8,1.31-13.33-.1-26.65-.48-39.98-.56-3.77-.02-6.52-1.47-9.37-3.83-21.03-17.41-42.21-34.65-63.32-51.98-2.37-1.95-5.06-2.27-7.96-2.27-14.5.03-28.99.02-43.49-.01-6.88-.02-7.44-.55-7.51-7.35-.07-6.32-.03-12.65.05-18.97.1-7.59.46-7.99,7.91-8,24.16-.02,48.32.05,72.48.05,9.83,0,19.66.01,29.49-.16,9.74-.18,20.97-8.26,24.38-17.2,1.07-2.81.35-4.65-2.68-5.07-2.3-.32-4.65-.32-6.98-.33-37.32-.11-74.65-.17-111.97-.3-7.99-.03-15.99-.45-23.98-.4-7.4.05-8.22,1.07-8.39,8.44-.74,32.62-1.02,65.24-.9,97.86.03,9.24-.13,9.4-9.53,9.4-9.5,0-19,0-28.49-.13-6.52-.08-7.28-.8-7.23-7.2.29-45.44-.05-90.88.83-136.31.1-5.27,2.46-6.46,7.07-6.41,28.99.3,57.98.48,86.96.66,9.5.06,18.99,0,28.49,0v.02Z"/>
      <path class="cls-1" d="m1434.2,226.94c27.32,0,54.64-.01,81.96,0,7.33,0,7.95.61,7.92,8.02-.1,24.13.3,48.25-.77,72.38-1.31,29.45-16.48,49.01-42.62,61.01-14.96,6.87-30.87,9.35-47.18,9.44-37.31.2-74.63.21-111.94.38-12.49.06-24.98.47-37.47.59-6.23.06-6.83-.57-6.95-6.85-.49-24.96-1.29-49.98.29-74.87,2.05-32.27,22.16-57.39,55.1-66.23,12.88-3.45,26.06-3.55,39.19-3.72,20.82-.28,41.65-.07,62.47-.07v-.08Zm-21.62,35.02c-19.32.2-38.64-.06-57.94,1.23-17.26,1.15-28.84,12.57-30.14,29.9-.14,1.82-.19,3.66-.2,5.49-.03,11.65-.07,23.3-.02,34.95.02,6.48.65,7.13,7.26,7.13,33.48.01,66.96,0,100.45-.09,4.99-.01,9.99-.31,14.96-.73,18.42-1.56,28.17-11.51,28.93-29.85.55-13.46.73-26.94.96-40.42.12-6.96-.54-7.58-7.78-7.59-18.82-.04-37.65-.01-56.47-.01Z"/>
      <path class="cls-1" d="m1555.91,295.9c.43-16.6-.58-38.72-.82-60.85-.09-8.46.23-8.66,8.6-8.56,16.64.2,33.31-.39,49.41,5.37,16.19,5.79,31.8,12.88,47.19,20.44,31.91,15.66,60.32,36.53,87.38,59.37,2.92,2.47,6.03,4.72,9.1,7.01,2.68,2,3.96.98,4.05-2.07.1-3.33.13-6.66.14-9.98.06-23.8.1-47.6.18-71.4.03-7.7.56-8.29,8.24-8.25,9.16.05,18.32.18,27.48.55,8.33.34,8.45.61,8.46,9.19.04,37.28.06,74.56.11,111.84,0,7.32-.08,14.65.19,21.97.17,4.37-1.31,6.32-5.88,6.57-12.32.68-24.65.54-36.97.67-4.29.05-7.07-2.02-9.79-5.01-23.36-25.68-48.39-49.56-77.01-69.41-20.5-14.22-42.62-25.37-66.1-33.78-8.76-3.13-9.41-2.62-9.45,6.51-.15,30.46-.23,60.91-.35,91.37-.04,9.4-.33,9.92-9.83,10.06-9.65.14-19.31-.36-28.97-.43-4.01-.03-5.18-2.21-5.19-5.71-.03-9.82-.13-19.64-.14-29.46-.03-13.48,0-26.96,0-45.99Z"/>
      <path class="cls-1" d="m1246.37,301.86c1,23.22.57,46.01.55,68.81,0,5.65-.83,6.87-6.6,6.88-11.99.02-23.98-.37-35.97-.48-4.53-.04-5.02-2.95-5.02-6.38-.02-17.81-.1-35.61-.02-53.42.14-27.62.39-55.24.6-82.86.06-7.2.41-7.59,7.7-7.58,10.82.02,21.65.05,32.47.53,5.11.23,6.4,2.27,6.36,7.03-.18,22.63-.08,45.26-.08,67.46Z"/>
      <path class="cls-1" d="m1464.7,421.6c70.97,0,141.95.48,212.92-.19,40.65-.38,81.3-.42,121.95-.56,6.49-.02,7.66,1.28,7.44,6.95-.22,5.77-4.47,4.91-7.97,4.91-47.82.05-95.65.16-143.47-.03-49.81-.2-99.64-.15-149.44-1.24-40.32-.89-80.65-1.14-120.94-.48-84.31,1.39-168.61.51-252.92.79-2,0-4-.05-6-.12-2.87-.09-4.84-1.19-4.82-4.43.02-3.23,1.1-5.56,4.82-5.61,1.5-.02,3-.09,4.5-.08,99.81.11,199.62.23,299.44.35,11.49.01,22.98,0,34.47,0,0-.09,0-.18,0-.27Z"/>
      <path class="cls-1" d="m772.95,435.65c7.99,0,15.98.11,23.97-.03,8.37-.15,14.75,3.8,19.94,9.76,7.62,8.74,4.41,20.52-6.52,24.74-1.24.48-2.54.8-3.84,1.09-3.39.78-3.99,2.43-1.97,5.32,3.85,5.52,9.1,9.68,13.74,14.43.81.83,1.78,1.52,2.54,2.39.85.98,2.16,2.01,1.68,3.4-.54,1.57-2.26,1.12-3.5,1.12-5.83.02-11.65-.07-17.48-.11-2.98-.02-4.51-1.17-5.69-4.28-2.62-6.89-6.89-13.07-12.61-17.66-5.04-4.04-11.45-2.51-17.33-1.6-2.07.32-2.49,2.49-2.58,4.39-.21,4.66-.24,9.33,1.07,13.86,1.06,3.67-.18,5.42-4.05,5.29-4.32-.14-8.65-.14-12.97-.36-1.9-.1-3.57-.43-2.78-3.33,2.01-7.32,1.36-14.86,1.23-22.33-.16-8.64-.45-17.29-.75-25.93-.06-1.82.19-3.95-.65-5.38-2.76-4.72-.49-5.15,3.56-5.07,8.32.16,16.64.05,24.97.05v.21Zm6.87,12.98c-2.77,0-6.58.02-10.39,0-4.61-.03-5.32,2.9-5.28,6.64.03,3.56.76,6.29,5.12,6.25,8.61-.08,17.22.28,25.82-.77,3.8-.46,5.16-2.36,5.05-5.91-.1-3.31-.96-5.77-4.89-6.19-4.8-.51-9.58-.66-15.43,0Z"/>
      <path class="cls-1" d="m874.4,434.95c16.22.26,29.02,6.94,37.8,20.58,5.41,8.4,5.04,17.02-.8,25.24-6.23,8.76-14.27,14.7-25.13,16.6-10.66,1.87-21.27,1.67-31.77-.64-17.46-3.83-29.65-21.17-25.38-36.51,3.27-11.73,12.31-18.23,23.13-22.41,7.11-2.75,14.67-2.73,22.15-2.86Zm-3.64,11.99c-5.31.18-11.32,1.82-16.47,5.91-10.63,8.46-10.38,21.36.53,29.49,8.28,6.17,24.1,6.55,32.66.75,6.52-4.42,9.28-10.66,8.61-18.41-.66-7.67-5.36-12.27-12.05-15.13-3.84-1.64-7.89-2.61-13.29-2.61Z"/>
      <path class="cls-1" d="m1018.39,466.99c0-8.64.16-17.29-.07-25.93-.11-3.98,1-5.76,5.27-5.68,14.98.26,29.96.31,44.94.34,7.05.01,12.84,2.61,17.93,7.43,9.82,9.29,7.55,21.95-5.1,27.1-4.19,1.71-8.62,2.48-13.16,2.64-8.65.32-17.29.78-25.94.93-4.19.07-6.19,1.7-6,5.96.19,4.32.02,8.66.43,12.95.32,3.35-1.1,4.38-4.13,4.72-14.07,1.59-14.03,1.63-13.76-12.51.11-5.98.02-11.97.02-17.96-.15,0-.29,0-.44,0Zm35.83-18.98v-.06c-3.98,0-7.96,0-11.94,0-6.24-.01-5.1,4.89-5.63,8.57-.56,3.89,1.63,5.27,5.21,5.54,8.47.62,16.9-.21,25.35-.41,4.82-.11,4.72-3.7,4.8-7.12.08-3.46-.46-6.45-4.86-6.51-4.31-.06-8.62-.01-12.93-.01Z"/>
      <path class="cls-1" d="m926.17,458.71c0-6.15.13-12.3-.05-18.45-.1-3.32.82-4.98,4.46-4.73,3.65.25,7.33.18,10.99.1,3.51-.08,4.57,1.4,4.29,4.9-.94,11.62-.8,23.28-.55,34.92.15,6.81,1.91,8.71,8.6,10.15,6.76,1.46,13.61,1.42,20.38.49,7.74-1.07,10.95-4.24,11.54-12.06.85-11.29.99-22.66-1-33.84-.75-4.23.58-4.72,4.15-4.76,12.67-.13,12.63-.22,12.43,12.24-.15,9.32.04,18.64-.33,27.95-.52,12.93-6.38,19.36-19.28,21.22-12.11,1.74-24.28,1.6-36.35-.32-12.89-2.05-18.15-8.33-18.38-21.34-.1-5.49-.02-10.98-.02-16.47-.29,0-.59,0-.88,0Z"/>
      <path class="cls-1" d="m1354.87,547.52c0-4.32.04-8.64-.01-12.96-.04-3.39,1.79-4.84,4.95-4.86,5.66-.03,11.37-.48,16.96.14,11.68,1.3,15.82,11.08,9.15,20.62-1.83,2.62-5.72,5.38-.63,8.53,5.33,3.3,9.2,2.58,11.62-2.67,3.12-6.78,6.1-13.7,7.22-21.17.53-3.47,1.77-5.6,5.65-5.4,3.58.19,7.81-.74,8.49,4.56,1.01,7.77,5.66,14.16,7.92,21.45.81,2.6,2.65,4.37,5.59,3.96,3.39-.48,3.36-3.24,3.26-5.78-.25-5.98-.58-11.95-.89-17.93-.22-4.28,1.54-6.55,6.1-6.48,7.49.11,14.98.02,22.47.04,3.24,0,5.48,1.02,5.4,4.88-.08,3.51-1.27,5.79-5.11,5.96-4.16.18-8.32.34-12.47.63-1.59.11-3.87-.02-4,2.09-.14,2.29,2.2,2.06,3.76,2.26,2.31.31,4.64.39,6.96.66,1.41.16,2.63.73,2.62,2.43,0,1.55-.96,2.59-2.37,2.79-2.46.35-4.96.59-7.44.53-3.62-.09-5.44,1.22-5.88,5.06-.9,7.99-1.06,7.9-9.43,7.21-2.3-.19-4.64.16-6.96.32-4.47.32-8.11-.66-10.42-5.1-1.6-3.07-10.28-2.47-13.57.66-7.52,7.18-22.75,6.3-29.2-1.68-.63-.78-1.29-1.52-1.93-2.29-1.48-1.77-2.71-3.91-5.65-3.03-3.02.9-2.82,3.32-2.8,5.66.03,3.47-1.66,5.12-5.13,5.36-3.41.24-5-.97-4.73-4.53.31-3.98.42-7.97.62-11.95h-.12Zm17.22-7.87c-.97.19-2.63.35-4.17.87-1.82.61-3.57,1.92-2.73,3.99.88,2.15,2.8,3.65,5.46,2.98,1.1-.28,2.09-.95,3.17-1.35,1.92-.71,4.04-1.51,3.68-3.95-.38-2.56-2.77-2.38-5.41-2.54Z"/>
      <path class="cls-1" d="m1704.47,493.99c.35,1.62.71,3.25,1.04,4.87.57,2.82.67,5.49-2.98,6.21-3.29.65-5.96.15-6.72-3.88-.72-3.82-2.29-6.76-6.93-7.2-4.86-.46-8.18.63-8.92,6.02-.58,4.22-3.34,5.86-7.34,5.88-1.16,0-2.33.07-3.49.07q-9.27.01-10.56-9.12c-.12-.82-.27-1.65-.5-2.44-.54-1.83.09-4.76-2.19-5.09-2.72-.39-3.64,2.53-4.5,4.61-.95,2.29-1.47,4.75-2.11,7.16-.94,3.53-3.4,4.67-6.78,4.47-3.41-.2-3.71-2.65-3.98-5.27-.24-2.31-.56-4.63-1.12-6.87-.28-1.15-.31-3.12-2.1-2.86-1.5.22-1.49,2-1.7,3.28-.37,2.3-.61,4.61-.99,6.91-.74,4.47-3.92,6.34-8.24,5.08-2.27-.66-2.12-2.2-1.82-3.92,1.96-11.31,3.32-22.68,3.51-34.18.04-2.15.47-4.06,3.16-4.2,3.19-.17,6.17.36,7.35,3.79,1.36,3.92,2.2,8.02,3.64,11.9.93,2.53,1.2,6.53,4.28,6.65,2.79.11,3.32-3.75,4.3-6.1,1.94-4.64,4.62-8.83,7.17-13.11,1.06-1.79,1.74-4.32,4.62-3.66,2.51.58,4,2.48,4.38,4.94.94,6.07,1.71,12.17,2.53,18.26.33,2.47.53,4.96.9,7.42.21,1.37-.24,3.43,1.88,3.52,1.89.09,2.27-1.77,2.51-3.21,1.5-9.15,5.58-17.37,9.25-25.73,1.14-2.61,2.07-5.55,5.6-5.55,3.16,0,4.46,2.63,5.73,4.94,2.43,4.38,4.31,9,5.2,13.96.71,4,1.97,7.72,5.01,10.61.31.62.63,1.24.94,1.86Z"/>
      <path class="cls-1" d="m1117.83,484.08c0-5.32.16-10.64-.05-15.95-.15-3.89,1.59-5.29,5.28-5.47,5.19-.26,10.32.1,15.4,1.04,4.56.85,7.66,3.7,9.95,7.64.95,1.64,1.81,4.06,4.3,3.42,2.47-.64,2.15-3.14,2.11-5.06-.06-3.39.63-5.79,4.72-6.1,3.89-.29,6.01.73,5.95,5.07-.12,8.14-.06,16.29.05,24.44.03,2.03-.71,5.06,2.06,5.47,2.89.43,2.78-2.71,3.35-4.66,2.55-8.79,5.33-17.48,9.38-25.72,1.28-2.6,2.75-5.16,6.22-4.85,3.51.31,5.84,2.38,6.87,5.68,3.17,10.06,6.22,20.16,9.36,30.23.96,3.09.26,5.25-3.08,6.1-3.3.84-4.87-.69-5.7-3.82-1.63-6.13-5.96-8.58-12.25-7.49-2.78.48-3.17,2.58-3.81,4.63-2.18,7.02-2.7,7.42-10.11,7.29-1.99-.03-3.99-.14-5.98-.33-4.87-.46-8.27-2.35-8-8.04.08-1.59.07-3.78-1.83-4.22-2.08-.48-2.39,1.92-3.3,3.16-6.21,8.45-18.1,12.3-28.08,9.14-2.21-.7-2.74-2.2-2.74-4.16-.02-5.81,0-11.63,0-17.44-.01,0-.03,0-.04,0Zm6.5.53c-.22,0-.43,0-.65,0,0,3.65-.02,7.31,0,10.96.02,2.4.87,4.13,3.56,4.6,6.27,1.1,12.15-2.43,14.02-8.55,1.04-3.39,1.11-6.89,1.01-10.38-.24-8.93-3.2-11.74-12.22-12.12-3.68-.16-5.77,1.1-5.74,5.01.03,3.49,0,6.98,0,10.47Z"/>
      <path class="cls-1" d="m1573.96,496.97c.19,6.89-.99,8.67-5.79,8.87-4.21.17-6.79-1.31-6.41-6.01.08-.99.04-2.01-.14-2.98-.22-1.25-.08-3.01-1.7-3.26-1.37-.21-1.64,1.43-2.21,2.37-3.62,5.95-8.2,10.21-15.67,10.91-20.19,1.9-25.62-18.35-20.22-32.27,2.77-7.14,7.39-12.09,15.72-12.54,8.39-.45,15.65,1.02,19.56,9.57.46,1.02.79,2.46,2.14,2.51,1.84.08,1.74-1.74,2.19-2.88,1.47-3.72,2.48-8.06,7.35-8.51,6.75-.62,13.71-1.62,19.73,2.86,2.34,1.74,2.97,4.49,2.78,7.18-.71,9.61-1.51,19.2.45,28.77.37,1.8-.19,3.37-2.46,3.49-2.29.12-4.03-.78-4.34-3.16-.53-4.06-2.74-7.05-5.67-9.64-1.19-1.05-2.18-2.99-4.11-2.2-1.9.79-1.37,2.79-1.33,4.41.02.83.09,1.66.13,2.49Zm-44.55-12.22c-.26,2.48.34,5.25,1.25,7.94,1.71,5.05,5.34,7.66,10.01,7.33,4.85-.34,8.03-3.23,9.1-8.44.94-4.59,1.06-9.22.35-13.88-.92-6.08-3.19-8.52-8.73-9-5.84-.51-9.01,1.62-10.83,7.3-.87,2.71-1.29,5.5-1.15,8.75Zm48.63-14.84c-3.63-.22-4.42,2-4.57,5.04-.21,4.02,1.24,6.31,5.56,6.44,3.73.11,4.94-1.82,5.01-5.2.09-4.19-2.03-6.06-6-6.27Z"/>
      <path class="cls-1" d="m1802.59,487.5c.51-6.22.32-12.13-.32-18.04-.32-2.96-.74-5.76,3.73-5.81,4.31-.05,4.25,2.73,4.25,5.71.01,10.15.07,20.31.07,30.46,0,1.75.77,3.97-1.4,4.88-2.22.93-4.61.65-6.67-.74-2.28-1.55-3.52-3.95-4.82-6.28-3.38-6.07-6.47-12.33-11.59-18.44-.48,7.75-1.05,14.63-1.29,21.53-.12,3.37-1.49,4.84-4.81,4.84-9.16,0-18.32.29-27.47.08-7.38-.17-7.91-1.09-7.55-8.29.47-9.47.99-18.94,1.1-28.42.05-4.19,1.46-6.22,5.73-6.18,5.16.04,10.33-.15,15.49-.04,2.18.05,4.55.48,4.65,3.42.12,3.2-2.49,3.06-4.57,3.32-1.64.2-3.33.14-4.99.12-4.01-.05-5.64,1.98-5.67,5.89-.03,4.15,2.36,5.05,5.83,4.94,1.5-.05,3,.04,4.5.1,1.83.07,3.32.58,3.31,2.82,0,2.24-1.19,3.36-3.36,3.48-1.16.06-2.33.05-3.5.06-6.08.05-8.36,2.85-7.26,8.82.31,1.67,1.16,2.71,2.78,3.13.48.12.97.22,1.46.31,14.11,2.45,15.53,1.28,15.65-12.81.05-5.66.05-11.32.28-16.98.1-2.38-.25-5.31,3.02-6.15,3.11-.8,5.59.46,7.4,2.95,3.92,5.38,7.77,10.81,11.63,16.24,1.22,1.72,2.04,3.76,4.39,5.07Z"/>
      <path class="cls-1" d="m1672.73,530.6c7.52,0,13.68-.02,19.84.01,2.11.01,4.14.34,4.22,3.1.07,2.28-.31,4.79-2.95,5.09-8.75.98-9.49,7.57-10.34,14.14-.23,1.81-.26,3.66-.21,5.48.1,3.4-.66,5.9-4.81,5.95-4.28.05-4.23-2.84-4.24-5.78-.02-4.49-.02-8.99-.03-13.48,0-4.31-2.14-6.37-6.48-6.39-5.17-.02-7.28,1.56-7.5,6.45-.2,4.31.14,8.65,0,12.97-.14,4.81-1.82,6.09-6.65,5.69-4.77-.4-7.79-3.47-10.61-6.81-2.25-2.67-4.31-5.51-6.53-8.2-.49-.59-1.38-1.29-2.01-1.23-1.26.13-1.14,1.45-1.23,2.4-.32,3.48-.49,6.97-.88,10.43-.38,3.28-2.87,3.73-5.53,3.71-2.85-.02-3.57-1.85-3.67-4.31-.3-7.31-.79-14.62-.95-21.93-.05-2.39-1.71-5.95,2.15-6.71,3.93-.78,8.2-.68,10.69,3.38,3.4,5.55,7.19,10.8,11.35,15.79.78.93,1.24,2.81,2.91,2.07,1.16-.51.72-2.09.75-3.21.12-4.32.18-8.65.23-12.97.04-3.23,1.49-4.81,4.88-4.88,6.32-.14,12.64-.53,17.62-.76Z"/>
      <path class="cls-1" d="m720.04,546.54c0-3.82.1-7.65-.03-11.47-.1-2.84.85-4.43,3.92-4.42,6.65.01,13.33-.4,19.92.87,4.21.81,8.27,2.12,9.81,6.63,1.66,4.89-.09,9.02-3.37,12.84-1.39,1.62-6.05,2.51-2.67,5.93,4.5,4.54,10.28,5.06,13.02,1.1,4.44-6.42,8.19-13.31,10.12-20.98.68-2.7.52-5.94,4.62-5.89,3.57.05,6.19,1.09,7.72,4.93,2.95,7.41,6.5,14.57,9.73,21.87.86,1.93,3.61,4.16.72,6.03-2.36,1.53-5.49.78-7.27-1.44-2.47-3.08-5.71-4.14-9.19-5.41-2.62-.96-4.45-.95-6.11,1.12-6.29,7.81-14.96,5.79-23.12,5.51-2.83-.1-4.7-2.26-6.04-4.72-1.12-2.05-2.39-4.01-4.55-5.16-5.1-2.74-7.65-1.46-8.1,4.17-.25,3.09-.93,5.71-4.78,5.65-3.91-.06-3.86-3.04-3.94-5.69-.12-3.82-.03-7.65-.03-11.47-.12,0-.24,0-.36,0Zm19.39.7c2.49-.12,5.27-.44,5.38-4.01.11-3.57-2.59-4.21-5.43-4.19-2.13.01-4.27.19-6.39.46-2.04.27-3.28,1.52-3.33,3.64-.05,2.05,1.34,2.88,3.11,3.17,2.11.34,4.23.6,6.65.93Z"/>
      <path class="cls-1" d="m1451.44,506.96c-7.32,1.13-12.15-3.09-15.3-10.62-4.09-9.77-3.67-19.02,1.82-28.05,1.71-2.82,4.3-4.62,7.33-5.73,10.82-3.99,22.07.9,26.27,11.56,2.51,6.37,2.78,13.07,1.19,19.63-2.24,9.27-8.57,13.23-21.31,13.22Zm11.73-23.63c-.06,0-.12-.01-.19-.02,0-1.33.03-2.66,0-3.99-.16-6.3-2.5-9.26-8.03-10.21-5.95-1.02-9.53.95-11.83,6.61-2.14,5.29-2.09,10.71-.84,16.19,1.35,5.93,4.29,8.4,10.01,8.4,5.46,0,8.78-2.74,9.95-8.56.55-2.76.64-5.61.93-8.41Z"/>
      <path class="cls-1" d="m1251.58,544.52c-1.98,6.14-5.56,10.98-9.77,15.52-2.24,2.41-3.58,2.71-5.88-.03-3.49-4.17-8.08-7.6-7.68-14.09-1.16,4.16-1.21,8.19-.27,12.25.59,2.56,1.22,5.19-2.63,5.57-3.56.35-6.31-.36-6.24-4.9.12-7.65.07-15.31.04-22.96-.01-3.18,1.28-5.27,4.63-5.14,3.13.13,6.91-.89,8.09,3.79,1.16,4.62,3.96,8.8,3.71,13.83-.06,1.15.46,2.36,1.76,2.76,1.57.48,2.8-.53,3.28-1.68,2.25-5.53,7.56-9.36,8.58-15.54.57-3.45,3.22-3.33,5.75-3.34,2.66,0,5.38.47,5.52,3.72.37,8.46.57,16.93.54,25.4,0,3.08-2.05,4.92-5.3,4.63-3.51-.31-3.54-2.76-3.21-5.5.58-4.72,1.26-9.46-.92-14.3Z"/>
      <path class="cls-1" d="m1704.47,493.99c-.32-.62-.63-1.24-.94-1.86-3.42-17.74,15.36-34.89,32.7-29.92,2.44.7,3.8,2.13,3.82,4.55.01,2.82-2.33,2.92-4.29,3.01-3.66.15-7.32.04-10.98.14-4.33.12-7.12,2.43-8.61,6.41-1.93,5.16-2.14,10.43-.64,15.69,1.65,5.77,8.83,9.24,14.54,7.2,4.12-1.47,4.86-7.23,1.42-11.43-.63-.76-1.47-1.34-2.19-2.04-.85-.83-1.69-1.79-1.32-3.04.51-1.71,2.12-1.32,3.37-1.36,5.96-.22,8.59,2.05,9.37,7.86.54,4-.08,7.97-.26,11.95-.15,3.18-2.53,4.18-5.13,4.45-10.61,1.09-21.24,2.08-27.74-9.26-.67-1.16-1.73-2.02-3.11-2.34Z"/>
      <path class="cls-1" d="m1271.36,490.41c0-5.59,0-11.17,0-16.76,0-1.66-.08-3.33.06-4.99.2-2.42-.15-5.45,3.63-5.28,3.32.14,3.2,2.83,3.26,5.16.04,1.82.02,3.67-.18,5.48-.94,8.46-.77,16.93-.44,25.4.08,2.1.69,4.62-2.09,5.48-2.64.82-4.93-.09-6.55-2.39-3.56-5.06-5.93-10.76-8.76-16.21-1.1-2.12-1.65-5.96-4.11-5.52-2.76.5-1.5,4.23-1.71,6.57-.42,4.63-.63,9.28-.87,13.93-.13,2.55-.6,4.76-3.88,4.54-3.1-.21-3.05-2.53-3.03-4.75.11-10.64.22-21.28.37-31.91.03-2.14-.22-4.59,2.47-5.4,2.52-.76,4.64.42,6.17,2.32,4.29,5.32,8.14,10.94,10.61,17.38.93,2.42,1.86,4.85,2.78,7.28.76-.11,1.51-.22,2.27-.33Z"/>
      <path class="cls-1" d="m1542.06,546.4c0-3.66,0-7.31,0-10.97,0-3.24,1.52-4.97,4.84-4.94,5.49.04,11-.22,16.46.2,8.7.67,15.18,8.71,15.03,18.09-.16,9.73-5.09,15.16-14.88,15.85-4.96.35-9.97.07-14.96.04-3.83-.02-5.92-2.1-6.09-5.82-.18-4.14-.04-8.3-.04-12.45-.12,0-.24,0-.36,0Zm8.25,2.93c-.13,7.75,1.7,9.76,8.97,9.82,7.06.06,10.36-2.94,10.56-9.62.2-6.78-2.88-9.84-10.03-9.97-7.71-.13-9.36,1.56-9.5,9.76Z"/>
      <path class="cls-1" d="m1321.86,483.57c-.17,2.32-.19,4.66-.53,6.95-1.34,9.18-8.33,15.52-17.47,15.97-10.6.53-16.17-3.53-18.93-13.72-1.06-3.91-1.43-7.9-.77-11.86,3.05-18.34,13.57-20.67,28.14-17.13,3.37.82,5.58,3.45,7.04,6.63,1.93,4.18,2.34,8.63,2.52,13.15Zm-6.66-.2c-.04-2.66-.15-5.3-1.08-7.85-1.69-4.62-6.22-7.75-11.14-7.71-5.2.04-7.66,3.26-9.14,7.7-1.84,5.54-1.69,11.11-.19,16.67,1.06,3.9,2.97,7.02,7.56,7.48,4.65.46,8.56-.57,11.13-4.86,2.11-3.53,2.95-7.36,2.85-11.43Z"/>
      <path class="cls-1" d="m1225.18,506.08c-18.06,2.88-24.9-19.19-18.84-30.48,6.05-11.27,16.64-16.3,28.82-12.63,2.19.66,3.61,1.86,3.43,4.21-.19,2.46-2.2,2.7-4.08,2.64-2.66-.08-5.31-.52-7.97-.56-7.96-.11-13.55,5.69-14.05,14.44-.49,8.53,4.08,15.1,11.12,15.82,2.82.29,5.97.64,7.59-2.37,1.68-3.1.59-6.19-1.29-8.9-.73-1.05-2.04-1.69-2.91-2.68-1.66-1.88-1.41-3.3,1.25-3.82,7.34-1.45,11.5,1.91,11.61,9.35,0,.17,0,.33,0,.5-.06,13.67-.89,14.5-14.67,14.47Z"/>
      <path class="cls-1" d="m813.35,531.51c2.16,0,4.32-.12,6.47.02,12.63.83,18.84,9,16.26,21.41-1.15,5.51-4.5,9.22-9.9,10.77-7.01,2.02-14.2.81-21.31.67-2.96-.06-3.52-2.78-3.7-5.12-.54-7.11-1.02-14.21-.83-21.36.13-4.84,2.13-7.01,7.03-6.52,1.97.2,3.98.03,5.97.03v.09Zm5.05,27.76c6.68.01,10.32-3.26,10.44-9.37.13-6.52-5.35-12.05-12-12.1-5.46-.04-7.18,2.86-7.28,12.25-.07,6.71,2.32,9.2,8.83,9.21Z"/>
      <path class="cls-1" d="m1192.35,565.03c-3.76.09-8.09-.53-11.76-3.71-6.99-6.05-8.6-13.39-4.43-20.83,4.63-8.25,14.12-12.12,23.06-9.23,5.06,1.63,9.32,4.47,11.81,9.34,6.71,13.13-1.76,24.69-18.68,24.44Zm1.6-5.72c5.89-.05,10.73-4.57,10.81-10.08.07-5.46-4.91-10.36-10.54-10.35-6.52,0-11.2,4.57-11.09,10.79.11,6.04,4.21,9.7,10.82,9.64Z"/>
      <path class="cls-1" d="m1327.61,565.01c-3.83-.01-7.64.1-11.09-2.15-9.36-6.1-10.97-15.47-4.08-24.34,5.73-7.37,14.97-10.66,22.52-8.06,3.66,1.26,6.33,3.64,7.93,7.14.61,1.35,1.21,2.99.06,4.25-1.4,1.52-2.82.16-4.01-.56-4.63-2.81-9.47-2.86-14.46-1.33-5.54,1.7-8.18,8.15-5.71,13.86,2.01,4.65,8.53,6.77,13.3,4.31,3.24-1.67,2.4-3.86.75-6.17-.65-.9-1.89-1.86-.95-3.03.78-.97,2.21-.68,3.32-.4,3.04.79,5.95,1.88,9.25,1.59,2.11-.19,2.54,1.85,2.43,3.62-.32,5.11-3.34,8.18-7.91,9.88-3.65,1.36-7.51,1.39-11.35,1.39Z"/>
      <path class="cls-1" d="m1519.02,564.39c-2.4.03-4.48-1.19-6.37-3.4-3.91-4.6-10.08-4.69-14.46-.45-1.19,1.15-2.12,2.68-3.82,3.08-2.21.51-4.81,1.8-6.56-.27-1.61-1.9.55-3.62,1.46-5.3,3.97-7.33,7.24-14.96,9.46-22.99,1-3.6,2.88-5.28,6.64-5.36,3.93-.07,5.4,1.89,6.36,5.47,2.28,8.42,7.13,15.67,11.43,23.15,2.44,4.25,1.17,6.18-4.15,6.07Z"/>
      <path class="cls-1" d="m1303.42,547.84c.98,13.12-9.41,17.71-20.21,17.75-9.73.03-18.41-8.6-18.19-17.95.21-8.92,9.89-17.29,19.9-17.22,11.56.08,18.61,6.72,18.49,17.42Zm-17.56-9c-6.78.08-12.06,4.46-12.12,10.05-.06,6.37,4.29,10.58,10.75,10.41,6.63-.17,11.54-4.71,11.51-10.63-.02-5.94-4.11-9.9-10.15-9.83Z"/>
      <path class="cls-1" d="m1618.11,563.37c-9.83,1.74-18.93,1.77-28.04.98-2.86-.25-4.53-2.2-4.5-5.09.09-8.31.31-16.63.53-24.94.07-2.69,1.78-3.83,4.28-3.83,7.16,0,14.32.06,21.48.12,3.04.02,4.06,1.83,3.93,4.57-.13,2.73-.83,5-4.27,4.9-3.16-.09-6.32-.24-9.48-.2-2.31.03-4.54.65-4.45,3.54.08,2.7,2.36,2.82,4.38,3.03.17.02.36-.03.49.04,1.63.77,4.58-2.19,4.96,1,.44,3.63-3.15,3.57-5.67,4.19-2.57.63-7.05-1.35-6.66,3.55.34,4.15,4.47,3.74,7.54,3.99,1.98.16,4,.03,5.98-.16,5.14-.48,5.14-.52,9.48,4.32Z"/>
      <path class="cls-1" d="m1071.2,564.28c-3.03.07-5.18-.73-7.08-2.7-5.02-5.23-9.99-5.32-15.62-.51-.63.54-1.17,1.23-1.86,1.65-2.32,1.4-5.04,2.87-7.34.8-2.19-1.96.33-3.94,1.25-5.69,4.18-7.92,9.22-15.4,12.06-23.99.74-2.23,2.31-3.12,4.54-3.11,2.58.02,5.14.28,6.26,3.07,3.57,8.94,7.27,17.81,11.68,26.4,2.27,4.43-1.97,3.63-3.89,4.07Z"/>
      <path class="cls-1" d="m954.57,565.08c-8.71-.13-15.99-5.69-18.36-14.03-1.46-5.14,1.81-12.08,7.61-16.15,10.09-7.08,25.53-2.84,30.6,8.41,2.46,5.46,1.31,11.36-3.02,15.53-4.58,4.41-9.8,6.34-16.82,6.24Zm1.29-5.82c5.78-.09,10.27-4.71,10.29-10.58.02-5.89-4.61-10.26-10.64-10.06-5.72.19-11.09,5.53-10.92,10.88.17,5.35,5.37,9.86,11.28,9.76Z"/>
      <path class="cls-1" d="m1727.77,564.05c-2.88,0-5.52-.17-7.5-2.92-4.13-5.7-9.19-6.02-14.24-.76-2.39,2.49-4.98,3.7-8.33,3.74-2.47.03-3.76-1.02-2.47-3.3,4.94-8.75,8.51-18.03,11.54-27.58,1.13-3.56,4.61-2.54,7.34-2.62,2.84-.08,4.78,1.07,5.37,4.07,1.33,6.77,4.5,12.86,7.27,19.09.96,2.15,1.98,4.21,4.17,5.44,1.24.7,3.15,1.15,2.6,3.11-.6,2.1-2.64,1.57-4.24,1.72-.5.05-1,0-1.5,0Z"/>
      <path class="cls-1" d="m1489.67,486.71c.41-6.13.07-12.27.98-18.38.47-3.13,1.95-4.79,5.09-5.03,1.99-.15,3.97-.43,5.96-.52,9.29-.41,13.1,1.9,14.39,8.68,1.79,9.33-1.28,15.32-9.41,18.31-1.25.46-2.53.8-3.8,1.2-5.94,1.87-6.79,3.7-4.32,9.5.57,1.35,1.81,2.76.36,4.06-2.06,1.84-4.65,1.49-7.12,1.02-1.86-.35-2.14-1.83-2.14-3.43,0-5.14,0-10.28,0-15.42Zm7.58-10.28c-.17,3.17,1.44,5.28,5.55,5.18,4.08-.1,6.12-1.98,6.07-6.15-.06-4.49-2.06-6.67-6.24-6.54-4.51.14-5.36,3.15-5.38,7.52Z"/>
      <path class="cls-1" d="m876.47,564.97c-9.16.79-14.5-4.84-18.44-12.51-.51-.99-.96-2.31-.74-3.33,1.65-7.81,6.32-13.57,13.4-16.85,7.51-3.48,14.37-.81,20.22,4.24,5.68,4.9,6.46,11.38,4.37,18.22-1.92,6.27-9.52,10.27-18.81,10.23Zm.9-5.48c6.65,0,11.57-4.49,11.48-10.46-.09-5.54-4.98-10.4-10.56-10.47-6.43-.09-11.95,4.84-12.05,10.76-.1,5.75,4.75,10.18,11.14,10.17Z"/>
      <path class="cls-1" d="m996.62,564.87c-6.62.58-12.29-1.91-14.92-8.61-2.63-6.72-2.37-13.59,3.17-19.02,5.21-5.1,11.31-8.36,18.96-5.87,3.66,1.19,7.15,2.85,9.8,5.77,1.13,1.24,2.28,2.9,1.21,4.48-1.1,1.62-2.74.31-4.06-.19-2.02-.77-3.93-1.84-5.97-2.54-4.76-1.65-10.83.11-14.08,3.94-3.49,4.12-3.96,9.58-1.09,12.8,2.66,2.99,11.82,4.08,15.06,1.69,2.62-1.94,1.47-3.63-.55-5.15-.91-.69-2.29-1.32-1.68-2.69.68-1.53,2.31-1.12,3.54-.87,2.92.6,5.71,1.63,8.78,1.69,2.1.04,2.53,1.93,2.41,3.71-.27,3.76-1.85,6.69-5.51,8.22-4.68,1.97-9.57,2.82-15.08,2.65Z"/>
      <path class="cls-1" d="m1341.11,462.55c.66,0,1.34-.06,1.99.01,2.6.28,5.95-.01,6.01,3.68.07,3.96-3.56,3.03-5.99,3.51-.48.1-1,.03-1.49.09-2.49.3-5.89-.74-6.45,3-.5,3.34,1.64,5.62,4.49,7.08,3.25,1.67,6.75,2.95,9.25,5.75,2.72,3.05,5.13,6.46,3.54,10.76-1.7,4.62-4.24,8.72-9.68,9.81-5.01,1-9.93.18-14.81-.88-1.98-.43-3.37-1.66-3.03-3.88.39-2.53,2.43-2.31,4.28-2.22,2.65.14,5.3.44,7.95.46,3.37.03,5.84-1.42,6.45-4.96.62-3.65-1.05-6.05-4.43-7.39-3.07-1.21-6.53-1.7-8.98-4.14-2.96-2.96-5.86-5.96-4.29-10.86,1.58-4.94,4.14-8.7,9.72-9.41,1.81-.23,3.62-.4,5.44-.59,0,.06.01.12.02.18Z"/>
      <path class="cls-1" d="m1421.11,506.94c-12.71-.04-19.32-6.23-20.17-19.05-.13-1.99-.17-3.99-.12-5.99.38-15.07,13.94-24.31,28.17-19.21,2.69.96,4.28,3.17,3.61,5.8-.7,2.75-3.31,1.45-5.11,1.07-6.2-1.3-12.35-2.47-16.66,3.91-3.77,5.58-3.51,17.05.28,22.42,2.27,3.22,5.63,4.03,9.2,4.09,2.48.04,4.96-.45,7.45-.6,2.54-.15,5.57-.33,5.81,3.05.21,3.01-2.8,3.38-5.03,3.8-2.44.46-4.96.48-7.44.7Z"/>
      <path class="cls-1" d="m1152.22,558.6c.18-2.77.38-6.58.69-10.38.4-4.94-2.13-7.38-6.72-8.16-1.8-.31-3.61-.56-5.4-.87-2.85-.49-3.73-2.36-3.6-5.04.14-2.81,1.88-3.63,4.32-3.7,8.13-.25,16.26-.55,24.39-.71,2.2-.04,5.42-.74,5.8,2.3.42,3.35-.93,7.61-4.47,7.96-7.54.74-6.94,5.55-6.76,10.63.11,3.15.19,6.3.21,9.45.02,3.4-2.21,4.01-5.02,3.99-3.08-.03-4.19-1.52-3.41-5.46Z"/>
      <path class="cls-1" d="m1093.91,531.57c5.11-.39,8.01.3,8.96,4.57.58,2.61,1.82,5.49,4.83,5.7,3.32.23,4.98-2.7,5.69-5.39,1.04-3.93,3.6-5.23,7.18-5.57,1.61-.15,3.45-.88,4.5.96.95,1.66.05,3.27-.88,4.64-2.24,3.29-4.51,6.57-6.96,9.71-3.11,3.99-5.77,8.07-5.81,13.42-.02,2.68-1.41,4.37-4.39,4.19-3.02-.18-4.05-2.04-3.76-4.72.57-5.25-2.36-9.17-4.85-13.26-1.99-3.26-4.07-6.46-6.03-9.73-.74-1.23-2.2-2.58-1.23-4.02.92-1.37,2.78-.51,2.74-.5Z"/>
      <path class="cls-1" d="m1369.71,463.21c4.32,0,8.65-.05,12.97.02,1.72.03,3.47.39,3.66,2.57.18,2.12-1.43,2.77-3.1,3.27-.16.05-.33.06-.49.11-3.17,1.05-7.48-.73-9.47,3.1-1.65,3.18-.69,6.87-.75,10.33-.09,6.31-.1,12.63.13,18.94.15,4.11-2.11,4.58-5.38,4.43-3.8-.18-3.77-2.47-3.17-5.18,1.91-8.69.12-17.59,1.47-26.32.4-2.55-1.2-4-3.67-4.47-1.63-.31-3.27-.59-4.89-.96-2.09-.48-3.19-1.83-2.85-3.97.33-2.06,2.1-1.79,3.56-1.81,3.99-.04,7.98-.01,11.97-.01v-.04Z"/>
      <path class="cls-1" d="m918.43,564.58c-3.66,0-7.32.12-10.98-.03-3.81-.15-6-2.03-6.63-6.05-1.25-8.03.24-15.91.94-23.83.28-3.18,2.66-3.85,5.44-3.82,3.01.04,4.2,1.69,4.07,4.45-.29,5.81-.77,11.6-.98,17.41-.21,5.7.95,6.8,6.55,6.77,4.49-.02,8.99-.1,13.48-.09,1.53,0,3.19.17,3.39,2.14.23,2.33-1.63,2.76-3.29,2.82-3.99.14-7.98.04-11.97.04,0,.06,0,.12,0,.18Z"/>
      <path class="cls-1" d="m1753.72,564.41c-3.49,0-6.98-.03-10.47,0-2.94.03-4.82-1.19-5.05-4.25-.64-8.44-1.23-16.89-1.82-25.33-.2-2.86,1.37-3.88,4.01-3.65,2.51.22,5.8-.62,5.66,3.62-.19,5.64-.63,11.28-.73,16.92-.12,6.88.55,7.47,7.24,7.52,4.32.03,8.64.03,12.97.09,1.54.02,3.21.23,3.3,2.21.09,2.05-1.65,2.32-3.14,2.36-3.99.09-7.98.03-11.96.03,0,.16,0,.32,0,.49Z"/>
      <path class="cls-1" d="m1473.2,542.86c0-5.82-.02-11.64,0-17.46.01-3.52,1.58-5.58,5.32-5.89,2.4-.2,3.39.49,3.14,3.02-1.17,12.09-1.39,24.24-1.63,36.37-.03,1.65-.04,3.4-1.43,4.62-1.29,1.13-2.78.9-4.25.38-1.68-.6-2.13-2.01-2.14-3.59-.03-5.82-.01-11.64-.01-17.46.33,0,.66,0,.98,0Z"/>
      <path class="cls-1" d="m1024.42,543.85c0-5.15-.21-10.32.06-15.45.24-4.43,3.59-6.36,7.64-4.74,1.98.79,1.02,1.9-.07,2.45-3.99,2-2.6,3.9,0,5.79,1.91,1.39,1.94,3.37,1.85,5.39-.36,7.8-.8,15.6-1.1,23.4-.1,2.49-1.28,3.69-3.66,3.76-2.84.07-5.04-.92-5.1-4.13-.11-5.48-.03-10.97-.03-16.46.14,0,.28,0,.41,0Z"/>
      <path class="cls-1" d="m1396.49,486c0,4.99-.06,9.98.02,14.97.06,3.71-1.5,5.6-5.36,5.43-4.31-.19-3.49-3.05-3.09-5.72,1.36-9.26-.15-18.61.81-27.89.15-1.48,0-2.99.07-4.49.09-2.15-.13-4.75,2.86-4.97,3.14-.24,3.66,2.4,4.04,4.73.95,5.95.33,11.96.66,17.94Z"/>
      <path class="cls-1" d="m1608.94,485.07c0-5.64,0-11.28,0-16.92,0-2.27.12-4.48,3.2-4.57,3.13-.1,3.95,1.89,3.95,4.52.03,10.95.07,21.89.04,32.84,0,2.38-.14,4.83-3.56,4.79-3.78-.04-3.5-2.67-3.48-5.24.04-5.14.01-10.28.01-15.42-.05,0-.11,0-.16,0Z"/>
      <path class="cls-1" d="m853.45,543.14c.22,4.79.52,9.59.65,14.38.08,2.81-.73,5.28-3.72,6.37-3.68,1.35-6.42-.54-6.01-4.41.87-8.27,1.13-16.52-.21-24.76-.38-2.31.19-4.03,2.92-4.06,2.72-.02,5.65.05,6.17,3.54.44,2.93.33,5.94.47,8.92-.09,0-.17,0-.26.01Z"/>
    </g>
  </g>
</svg>