<?xml version="1.0" encoding="UTF-8"?>
<svg id="Capa_2" data-name="Capa 2" xmlns="http://www.w3.org/2000/svg" viewBox="0 0 1593.56 1383.54">
  <defs>
    <style>
      .cls-1 {
        fill: #fff;
      }
    </style>
  </defs>
  <g id="Capa_1-2" data-name="Capa 1">
    <g>
      <path class="cls-1" d="m869.57,432.84c2.05-.3,2.74-.25,3.29-.51,34.72-16.66,71.75-24.51,109.75-28.26,44.97-4.44,89.9-4.01,134.4,4.66,61.17,11.92,112.14,41.1,150.65,90.79,12.42,16.02,20.45,34.25,26.69,53.36.43,1.33,1.65,3.11.17,4.14-1.27.89-2.82-.42-4.12-1.08-32.08-16.41-65.67-28.46-101.07-35.46-44.27-8.76-88.94-11.02-133.82-7.47-39.2,3.1-77.28,12.02-114.7,24.08-59.65,19.23-115.33,46.98-169.41,78.2-48.22,27.84-94.8,58.3-141.11,89.17-53.09,35.41-106.31,70.62-159.62,105.7-30.35,19.97-60.83,39.73-92.3,57.87-46.14,26.59-93.27,51.15-145.35,64.27-34.85,8.78-70.15,14.59-106.28,13.49-6.3-.19-12.59-.68-19.2-1.05.7-2.73,2.79-3.66,4.48-4.78,51.66-34.43,93.85-78.57,130.91-127.92,36.3-48.35,67.44-99.94,95.71-153.31,5.77-10.89,11.52-21.79,17.17-32.75,2.78-5.4,2.36-5.9-3.45-6-46.02-.78-91.5-5.73-135.58-19.55-38.68-12.13-74.07-30.9-106.03-55.85-28.74-22.43-54.33-48.13-77.2-76.52-14.6-18.12-23.8-39.22-33.47-60.08-.12-.26-.02-.63-.02-1.25,2.14-.13,3.25,1.39,4.44,2.63,34.15,35.19,74.02,62.33,117.8,84.07,51.09,25.38,104.99,41.28,161.49,48.55,58.05,7.46,113.91-.69,167.66-23.74,52.58-22.55,99.02-54.66,142.5-91.41,30.17-25.5,58.95-52.54,88.29-78.96,46.69-42.04,92.63-84.86,136.71-129.66,19.39-19.71,39.61-38.64,57.26-59.99,15.8-19.12,28.19-40.03,31.66-65.2,3.31-24.02-2.37-45.96-15.27-66.21-4.48-7.03-9.5-13.68-14.63-20.25-1.16-1.48-3.08-3.22-1.76-5.29,1.26-1.98,3.61-1.1,5.56-.96,44.64,3.31,82.38,22.51,116.31,50.48,5.27,4.34,10.41,8.85,15.43,13.48,2.98,2.75,6.4,4.01,10.32,4.46,23.35,2.69,46.58,6.1,69.4,11.81,18.7,4.67,36.55,11.4,52.62,22.35,5.02,3.42,9.29,7.58,13.41,11.94,6.46,6.85,14.26,11.54,23.24,14.05,11.72,3.27,23.61,5.46,35.86,5.96,24.12.98,48.22,2.47,72.33,3.67,5.32.26,10.67.08,15.99.28,11.92.44,17.52,6.12,16.84,18.04-.89,15.54-6.32,29.95-12.68,43.92-11.99,26.37-27.59,50.23-50.33,68.75-24.53,19.97-53.25,29.96-84.11,34.28-28.37,3.97-56.85,7.19-85.24,11.02-45.72,6.17-88.11,21.86-127.74,45.28-28.37,16.77-54.39,36.7-78.67,58.92-4.72,4.32-10.38,7.64-15.16,13.84Z"/>
      <path class="cls-1" d="m924.58,1196.21c-.28-51.83-.43-103.66.45-155.49.14-8.16.27-16.34-.05-24.49-.17-4.34,1.06-5.72,5.55-5.69,30.33.22,60.66.17,91,.2,56.5.06,113,.12,169.5.18,8.59,0,8.68,0,8.7,8.44.04,20.17.04,40.33-.04,60.5-.03,6.85-.2,7.01-7.06,7.04-28.5.12-57,.28-85.5.21-30.5-.08-60.99,1.24-91.48-.07-4.08-.18-5.2,1.29-5.17,5.11.19,20.16.37,40.33.19,60.5-.05,5.27,1.97,6.33,6.78,6.31,49.83-.18,99.67-.17,149.5-.19,8.2,0,8.42.02,8.48,8.27.14,19.66.11,39.33.04,59-.03,6.86-.19,6.88-7.1,6.89-49.5.07-99,.14-148.5.21-1.67,0-3.34.14-5,0-3.19-.26-4.48,1.03-4.46,4.29.15,21.83.25,43.66.22,65.49,0,4.55,2.77,4.51,5.96,4.51,27.17,0,54.33.06,81.5.07,31.33.02,62.67,0,94,.02,7.81,0,7.88.03,7.89,7.97,0,20.33-.03,40.66-.1,61-.02,6.46-.12,6.5-6.83,6.51-58.17.06-116.33.1-174.5.15-29,.02-58,.05-87.01.04-6.9,0-6.94-.07-6.94-6.97-.01-60,0-120,0-180Z"/>
      <path class="cls-1" d="m30.19,1196.78c0-59.16-.02-118.31.02-177.47,0-8.33.13-8.46,8.62-8.47,22.83-.01,45.66.05,68.49.19,9.72.06,10.04.26,10.09,10.14.18,38.83.19,77.66.26,116.49,0,5.17-.06,10.33-.02,15.5.01,1.39-.95,3.41.89,3.96,1.5.44,2.51-1.34,3.5-2.42,3.38-3.68,6.71-7.41,10.1-11.09,37.94-41.19,73.71-84.26,109.77-127.08,3.55-4.22,7.15-5.75,12.31-5.87,30.82-.73,61.64-.93,92.46-.02,1.58.05,3.8-.63,4.38,1.37.55,1.88-1.18,3.38-2.38,4.7-12.87,14.19-25.74,28.38-38.72,42.48-33.75,36.64-67.52,73.26-101.38,109.79-3.26,3.52-3.61,5.79-.4,9.95,40.11,51.97,80.22,103.94,119.27,156.71,9.42,12.72,19.06,25.27,28.49,37.99,1.81,2.45,5.13,5.15,3.56,8.17-1.28,2.47-5.19,1.2-7.93,1.21-28.49.09-56.98,1.11-85.48.11-4.19-.15-7.25-1.58-9.93-4.72-13.32-15.6-25.23-32.29-37.8-48.48-22.78-29.35-45.35-58.85-67.93-88.35-1.85-2.41-2.96-2.87-5.37-.57-8.81,8.41-16.52,17.86-25.05,26.53-2.15,2.19-2.64,4.81-2.63,7.78.08,32.16.17,64.33.06,96.49-.04,12.95-.03,11.13-11.15,11.18-23.33.1-46.66.09-70,.08-6.55,0-6.61-.06-6.61-6.77-.02-59.83,0-119.66,0-179.49.17,0,.33,0,.5,0Z"/>
      <path class="cls-1" d="m570.66,1196.78c0-58.17-.06-116.33.04-174.5.02-13.67-.57-11.55,11.56-11.56,45.5-.05,91,.14,136.5.1,28.19-.02,55.79,2.96,82.19,13.74,40.17,16.4,66.68,45.08,73.99,88.05,6.52,38.32,2.43,75.61-23.34,107.5-16.23,20.09-37.47,32.71-61.65,40.83-24.08,8.08-49.05,11.03-74.24,11.97-17.81.67-35.65.49-53.48.35-4.01-.03-4.69,1.36-4.68,4.88.08,30.33.16,60.67-.05,91-.11,16.59-.15,13.62-13.4,13.8-22.33.3-44.66.08-66.99.46-5.27.09-6.43-1.98-6.42-6.62.07-26.67-.04-53.33-.06-80-.02-33.33,0-66.67,0-100h.02Zm86.92-56.01h.2c0,16.66.07,33.31-.05,49.97-.03,3.8,1.24,5.33,5.19,5.29,22.65-.19,45.3-.06,67.95-.32,10.78-.12,21.17-2.68,30.92-7.25,18.6-8.72,28.62-23.5,29.28-44.04.65-20.27-6.45-36.77-24.75-47.34-10.18-5.88-21.09-9.04-32.81-9.19-23.81-.31-47.63-.37-71.45-.78-4.23-.07-4.54,1.95-4.53,5.18.07,16.16.03,32.31.03,48.47Z"/>
      <path class="cls-1" d="m1405.63,1010.78c51.83,0,103.66,0,155.49,0,7.63,0,7.95.05,8.02,7.57.2,20.83,0,41.66.22,62.49.05,4.98-2.01,6.14-6.55,6.16-35.33.18-70.65.65-105.98.72-5.06,0-6.49,1.37-6.52,6.4-.63,91.32-.69,182.65-.59,273.97,0,2.83-.28,5.69,0,8.49.51,4.99-1.92,6.38-6.44,6.37-25.66-.05-51.33-.06-76.99.17-5.13.05-4.99-2.79-4.99-6.37.07-61.16.1-122.32.12-183.49.01-33.5-.09-67,.08-100.49.02-4.5-1.1-5.88-5.81-5.85-35.16.25-70.33.21-105.49.21-7.03,0-7.15-.09-7.08-7.23.22-21.16-.71-42.32-.16-63.49.12-4.72,1.77-5.82,6.19-5.8,52.16.13,104.32.08,156.49.08v.07Z"/>
      <path class="cls-1" d="m406.52,1196.95c0-58.16,0-116.31,0-174.46,0-1.67,0-3.33.03-5,.11-6.17.59-6.75,6.98-6.81,12.5-.13,24.99-.18,37.49-.15,12,.03,24,.14,35.99.31,6.35.09,6.67.43,6.8,6.92,1.26,64.48.42,128.97.62,193.45.16,51.99.02,103.98-.02,155.97,0,3.66-.47,7.32-.45,10.97.02,3.43-1.63,4.83-4.86,4.85-4.33.02-8.66.09-13,.12-20.66.15-41.32.35-61.98.41-7.34.02-7.4-.14-7.41-7.63-.02-59.65,0-119.31,0-178.96h-.18Z"/>
      <path class="cls-1" d="m1593.46,627.34c-.47,70.54-54.89,126.59-120.38,128.96-23.25.84-45.1-2.48-65.81-12.98-31.95-16.2-52.32-42.01-62.73-76-2.74-8.96-4.2-18.15-5.05-27.47-.49-5.4,1.64-9.32,5.85-12.43,4.7-3.47,9.92-5.24,15.75-5.64,16.71-1.14,32.85,1.5,48.73,6.56,22.16,7.07,44.86,12.81,68.1,12.03,31.87-1.07,61-10.56,83.09-35.44,7.59-8.55,12.92-18.56,17.77-28.83.47-.99.56-2.57,2.05-2.52,1.63.06,1.92,1.67,2.35,2.88,6.25,17.69,11.14,35.63,10.28,50.87Z"/>
      <path class="cls-1" d="m1469.77,498.81c35.97,1.22,68.68,16.47,94.24,46.72,1.68,1.99,3.24,3.96,1.43,6.64-7.27,10.76-12.16,23.03-20.25,33.23-14.23,17.94-34.04,25.27-55.93,28.48-20.77,3.04-40.3-2.7-59.92-7.99-13.51-3.64-27.01-7.34-40.92-9.11-13.35-1.7-26.55-.09-39.62,2.72-5.31,1.14-6.05.46-4.62-4.78,12.69-46.49,42.39-76.72,88.09-91.15,10.93-3.45,22.46-4.71,37.5-4.76Z"/>
    </g>
  </g>
</svg>