<?xml version="1.0" encoding="UTF-8"?>
<svg id="Capa_2" data-name="Capa 2" xmlns="http://www.w3.org/2000/svg" viewBox="0 0 1346.75 1572.05">
  <defs>
    <style>
      .cls-1 {
        fill: #fff;
      }
    </style>
  </defs>
  <g id="Capa_1-2" data-name="Capa 1">
    <g>
      <path class="cls-1" d="m230.17,427.45c.31-20.85.85-45.51,1.8-70.16.18-4.8,1.95-7.05,6.35-8.62,38.11-13.59,76.42-26.7,114.11-41.38,18.98-7.39,38.02-4.59,57.17-4.93,3.65-.07,3.65,2.54,3.66,5.18.02,19,.14,38,.12,57-.03,26.5-.15,53-.21,79.5-.01,6.15.02,6.13,5.69,4.79,30.64-7.22,61.25-14.52,91.94-21.53,4.42-1.01,5.36-3,5.39-7.17.46-55,1.16-109.99,1.6-164.98.04-4.95,1.62-7.24,6.4-8.86,32.02-10.85,63.9-22.1,95.88-33.04,3.82-1.31,5.1-3.23,5.09-7.22-.13-43.83-.12-87.67-.07-131.5,0-4.41-.81-8.49-2.5-12.6-5.46-13.24-9.09-26.85-6.46-41.38.35-1.96.84-3.91,1.43-5.82C621.64,1.65,623.98-.03,637.61,0c11.83.03,23.67.11,35.5,0,3.64-.03,5.7,1.27,7.19,4.74,5.23,12.17,6.59,24.68,4.29,37.67-1.1,6.2-.81,6.59,5.5,6.54,17.29-.11,34.31,1.38,50.43,8.26,9.22,3.93,16.84,9.87,23.05,17.85,7.22,9.28,17.92,13.64,28.13,18.5,21.39,10.18,43.73,13.73,67.14,8.8,1.13-.24,2.51-.81,3.29.23.84,1.12-.35,2.13-.94,3.1-10.05,16.39-23.66,28.68-41.49,36.18-8.06,3.39-16.3,4.4-24.94,2.92-26.78-4.57-52.66-12.08-76.81-24.63-13.11-6.81-26.49-6.71-40.37-4.41-3.29.55-4.41,2.37-4.39,5.51.22,28.66.43,57.33.52,85.99.01,3.39,2.14,4.08,4.59,4.9,18.97,6.28,37.95,12.51,56.88,18.91,15.61,5.28,31.12,10.88,46.76,16.07,3.67,1.22,5.02,3.23,5.03,6.85.03,7.83.25,15.66.32,23.49.44,47,.86,93.99,1.3,140.99.07,7.53.08,7.63,7.27,9.28,31.64,7.28,63.3,14.46,94.92,21.79,3.42.79,4.13-.51,4.1-3.44-.06-5,.04-10,.04-15-.02-41,.04-82-.16-123-.02-4.86,1.53-6.35,6.25-6.24,11.99.28,24,.09,35.99.21,7.16.07,13.57,3.27,20.13,5.54,39.95,13.8,79.81,27.87,119.76,41.68,4.36,1.51,4.12,4.85,4.28,8.01.81,15.98,1.69,31.96,2.06,47.95,2.01,86.84-5.65,172.79-24.94,257.55-12.56,55.21-30.41,108.7-53.91,160.27-29.47,64.67-66.79,124.38-112.64,178.69-59.08,69.99-128.1,128.01-208.51,172.15-9.77,5.36-19.98,9.94-29.89,15.06-2.91,1.5-5.16.17-7.52-.93-18.17-8.42-35.47-18.45-52.4-29.1-57.93-36.44-109.51-80.42-155.05-131.47-76.73-86.01-131.05-184.63-165.32-294.5-18.03-57.78-29.45-116.87-36.23-176.97-4.68-41.47-6.58-83.03-6.64-128.53Zm537.71,316.77h.09c0,27.82-.01,55.64.03,83.47,0,1.42-.59,3.35.84,4.15,1.5.84,2.71-.8,3.91-1.58,25.11-16.37,50.17-32.84,75.35-49.09,3.62-2.34,5.14-4.8,5-9.24-.83-27.31-1.9-54.63-1.76-81.94.07-14.7-5.27-26.57-14.34-37.26-7.77-9.17-17.47-14.82-29.94-14.57-12.06.25-21.83,6.11-31.66,12.31-5.78,3.64-7.75,8.09-7.67,14.79.31,26.32.13,52.64.13,78.97Zm-238.87,11.17s-.06,0-.09,0c0-24.5-1.06-49.05.4-73.46.85-14.24-5.12-21.3-16.87-26.13-4.33-1.78-8.66-3.53-13.27-4.3-6.81-1.13-13.81-1.69-20.12,1.56-17.26,8.89-28.82,22.8-30.13,42.36-2.02,30.25-1.81,60.62-1.96,90.94-.02,3.13.99,5.1,3.77,6.89,24.65,15.87,49.19,31.92,73.77,47.9,1.2.78,2.38,2.41,3.92,1.47,1.22-.75.57-2.46.57-3.74.02-27.83.02-55.66.02-83.48Z"/>
      <path class="cls-1" d="m191.1,1405.18c-38.16-.14-62.48-22.15-66.31-55.77-1.83-16.07-.02-31.5,7.1-46.18,10.91-22.5,33.98-34.92,59.08-33.98,36.35,1.36,57.06,30.15,58.69,59.58.87,15.61-.78,30.62-8.25,44.49-11.72,21.75-30.74,31.3-50.31,31.87Zm27.05-67.06c.24-6.74-.39-13.02-2.25-19.12-4.42-14.55-13.2-22.15-26.6-23.14-12.34-.91-23.45,5.56-28.88,18.12-7.57,17.5-7.25,35.07,2.7,51.68,9.56,15.94,33.99,17.27,45.91,2.92,7.48-9,9.43-19.57,9.11-30.45Z"/>
      <path class="cls-1" d="m1084.2,1343.86c18.26,15.33,26.96,36.78,39.77,55.28,1.76,2.54,1.42,4.29-2.33,4.23-8.82-.13-17.65-.15-26.47-.12-2.63.01-4.1-1.05-5.47-3.38-7.41-12.62-14.27-25.57-22.5-37.7-3.53-5.21-7.8-8.86-14.56-9.08-3.98-.13-5.24,1.21-5.19,5.13.14,13.15-.18,26.31.05,39.46.08,4.29-.93,5.98-5.49,5.73-6.64-.36-13.32-.21-19.97.02-3.28.12-4.49-1.07-4.43-4.26.1-5.49-.02-10.99-.02-16.48,0-35.63.07-71.27-.08-106.9-.02-3.52,1.13-4.18,4.25-4.15,15.32.15,30.64.13,45.96.14,6.03,0,11.96.93,17.75,2.43,23,5.96,29,25.97,23.14,45.92-2.76,9.4-9.36,15.93-17.82,20.6-2,1.11-4.13,1.98-6.57,3.14Zm-36.7-32.24h-.12c0,3,.02,6,0,9-.1,10.98,0,8.87,9.12,9.13,8.82.26,15.95-2.3,20.71-10.28,5.84-9.8-.47-23.1-11.78-24.16-4.8-.45-9.66-.26-14.47-.6-2.71-.19-3.56.84-3.49,3.4.12,4.5.03,9,.03,13.5Z"/>
      <path class="cls-1" d="m414.13,1337.06c0-20.16.09-40.31-.08-60.47-.04-4.25,1.36-5.21,5.52-5.11,15.82.38,31.65.27,47.47.39,5.36.04,10.62.98,15.74,2.43,19.4,5.49,28.95,23.4,23.29,43.59-3.22,11.48-10.44,19.6-21.42,24.1-4.07,1.67-3.83,2.7-.53,4.9,4.64,3.1,8.11,7.47,11.08,12.08,8.56,13.3,16.83,26.78,25.33,40.11,1.96,3.08,1.75,4.3-2.21,4.24-8.66-.14-17.32-.19-25.98-.04-3.37.06-4.96-1.62-6.54-4.3-7.39-12.45-14.08-25.3-22.13-37.36-3.59-5.37-8.42-8.27-14.95-8.52-3.2-.12-4.4.85-4.37,4.22.12,13.49-.2,26.99.06,40.48.09,4.57-1.56,5.74-5.78,5.54-6.15-.28-12.34-.34-18.48.03-4.58.28-6.08-1.22-6.03-5.85.21-20.15.09-40.31.09-60.47h-.07Zm30.3-25.06h-.14c0,4.65.03,9.3-.01,13.95-.02,2.35.69,3.81,3.37,3.8,4.98-.03,9.99.16,14.87-1.02,7.84-1.89,14.02-10.55,13.46-18.71-.53-7.75-6.19-14.01-13.75-14.68-4.78-.43-9.62-.2-14.43-.37-2.59-.09-3.5,1.03-3.42,3.58.15,4.48.04,8.97.04,13.45Z"/>
      <path class="cls-1" d="m282.99,1337.28c0-20.15.11-40.3-.09-60.45-.04-4.2,1.25-5.36,5.4-5.29,15.82.3,31.64.1,47.46.37,7.86.13,15.55,1.71,22.66,5.26,10.58,5.28,16.1,13.92,17.04,25.7,1.51,18.88-6.24,32.15-23.64,39.7-1.73.75-2.8,1.51-.77,2.97,10.04,7.26,15.55,18.07,22.02,28.11,5.4,8.39,10.45,17.02,15.8,25.45,1.86,2.93,2.1,4.32-2.12,4.22-8.82-.19-17.65-.19-26.47-.08-3.21.04-4.65-1.72-6.08-4.2-6.81-11.82-13.72-23.57-20.69-35.3-3.47-5.85-8.23-9.88-15.37-10.65-3.65-.39-5.05.58-5.02,4.49.12,13.49-.23,26.98-.08,40.46.05,4.23-1.42,5.5-5.49,5.32-6.48-.28-13-.32-19.48,0-4.05.2-5.15-1.26-5.12-5.14.15-20.32.07-40.63.06-60.95Zm30.25-25.46h-.12c0,4.83,0,9.66,0,14.49,0,2.16.77,3.44,3.2,3.43,5.17-.03,10.39.07,15.4-1.27,7.98-2.13,13.41-11.19,12.31-19.94-1.06-8.38-6.47-12.94-15.92-13.36-3.33-.15-6.68,0-9.98-.37-3.61-.4-5.25.57-4.95,4.53.31,4.14.07,8.32.07,12.49Z"/>
      <path class="cls-1" d="m838.11,1315.9c0-13.16.09-26.32-.06-39.48-.04-3.62,1.06-5.04,4.87-4.91,6.99.23,13.99.06,20.98-.12,3.02-.08,4.6.63,4.54,4.11-.56,27.97,1.08,55.97-1,83.9-2.02,27.1-19.11,43.54-46.52,45.54-8.7.63-17.37.09-25.75-2.34-20.14-5.84-29.23-20.74-32.13-40.33-.71-4.76-.93-9.62-.96-14.44-.16-23.49-.07-46.97-.37-70.46-.06-4.78,1.57-6.01,6.04-5.8,6.48.31,13,.27,19.48-.09,4.05-.22,5.53.83,5.49,5.13-.25,24.48-.2,48.96-.32,73.45-.02,4.88.61,9.63,2.18,14.24,3.32,9.76,10.51,14.39,21.61,13.97,11-.42,18.12-5.65,20.59-15.51.76-3.04,1.08-6.25,1.11-9.39.12-12.49.05-24.98.05-37.48h.18Z"/>
      <path class="cls-1" d="m907.99,1337.14c0-20.16.11-40.32-.09-60.48-.04-4.25,1.28-5.25,5.4-5.2,21.49.28,42.98.35,64.47.22,4.27-.03,5.52,1.31,5.15,5.43-.46,5.13-.6,10.32-.44,15.48.12,3.7-1.04,4.9-4.83,4.81-11.66-.27-23.32-.05-34.98-.29-3.49-.07-4.73.96-4.62,4.49.2,5.99.14,12-.06,17.99-.12,3.5,1.32,4.67,4.7,4.61,10.66-.18,21.33-.05,31.98-.3,3.67-.09,5.11,1.04,4.91,4.81-.29,5.48-.36,11-.16,16.49.14,3.71-1.49,4.45-4.79,4.37-10.66-.24-21.33-.08-31.98-.39-3.59-.1-4.65,1.11-4.55,4.53.18,6.49.24,13-.04,19.49-.17,3.88,1.37,4.75,4.95,4.67,12.66-.26,25.32-.07,37.98-.4,4.08-.1,5.22,1.11,4.85,5.12-.47,5.13-.48,10.32-.31,15.48.12,3.82-1.12,5.31-5.12,5.29-22.32-.13-44.65-.15-66.97.05-4.48.04-5.62-1.49-5.57-5.79.2-20.16.09-40.32.1-60.48Z"/>
      <path class="cls-1" d="m546.11,1337.12c0-20.16.11-40.32-.09-60.47-.04-4.25,1.26-5.2,5.41-5.14,21.32.3,42.65.39,63.97.17,4.84-.05,6.12,1.64,5.76,6.04-.42,5.14-.66,10.31-.61,15.47.03,3.38-1.37,4.25-4.49,4.2-11.66-.17-23.33,0-34.98-.29-3.75-.09-4.97.98-4.8,4.74.27,5.98.16,12-.06,17.99-.12,3.25,1.01,4.39,4.28,4.33,10.66-.19,21.33.02,31.98-.27,3.91-.1,5.42.95,5.13,5.02-.37,5.14-.43,10.33-.17,15.48.21,4.14-1.6,5.1-5.32,5.03-10.33-.2-20.66,0-30.98-.26-3.66-.09-5.02.87-4.86,4.71.27,6.65.11,13.33-.06,19.99-.08,3.02,1,4.09,4.06,4.02,12.82-.28,25.65-.24,38.47-.59,3.37-.09,4.99.56,4.84,4.26-.24,5.99-.29,11.99-.18,17.99.05,2.96-1.33,3.7-3.94,3.7-23.16,0-46.31,0-69.47.16-4.22.03-3.9-2.58-3.9-5.29,0-20.33,0-40.65,0-60.98Z"/>
      <path class="cls-1" d="m1268.83,1337.25c0-20.33.09-40.65-.08-60.98-.03-3.68.9-4.83,4.72-4.79,21.82.25,43.65.32,65.48.21,3.77-.02,4.96,1,4.65,4.8-.42,5.14-.5,10.33-.25,15.48.2,4.06-.96,5.52-5.26,5.41-11.49-.3-22.99.03-34.48-.21-3.6-.07-4.62,1.11-4.51,4.54.18,5.82.14,11.67-.17,17.49-.22,4.09,1.54,5.11,5.29,5.04,10.33-.2,20.66,0,30.99-.2,3.8-.07,5.49.95,5.16,5.1-.41,5.14-.49,10.33-.23,15.48.19,3.79-1.12,4.97-4.82,4.89-10.66-.22-21.33-.02-31.99-.26-3.33-.07-4.39,1.04-4.31,4.26.16,6.33.22,12.67-.06,18.99-.18,4.06,1.05,5.5,5.33,5.39,12.66-.32,25.32-.08,37.98-.3,3.49-.06,4.7.87,4.43,4.51-.42,5.64-.39,11.32-.29,16.98.05,2.89-.73,4.24-3.89,4.23-23.33-.05-46.65-.05-69.98.11-3.69.02-3.88-1.83-3.87-4.67.07-20.49.04-40.99.04-61.48h.11Z"/>
      <path class="cls-1" d="m655.9,1337.02c0-20.15.1-40.31-.08-60.46-.03-3.88.91-5.13,4.99-5.08,21.65.27,43.31.3,64.96.2,3.92-.02,5.32.97,4.93,5.07-.48,4.96-.52,10-.27,14.98.21,4.29-1.09,5.83-5.63,5.68-11.32-.37-22.65-.08-33.97-.3-3.3-.06-4.91.64-4.81,4.32.17,6.82.23,13.67-.14,20.48-.25,4.67,1.87,5.61,5.93,5.5,10.16-.25,20.32-.11,30.48-.36,3.77-.09,5.52.88,5.21,5.05-.4,5.47-.36,10.99-.28,16.48.05,3.43-1.26,4.71-4.73,4.64-10.66-.22-21.32-.02-31.97-.34-3.61-.11-4.54,1.03-4.49,4.46.19,13.49,0,26.98.24,40.47.07,4.08-1.15,5.69-5.34,5.52-6.49-.26-13-.3-19.48.02-4.57.23-5.56-1.64-5.52-5.85.18-20.15.08-40.31.08-60.46h-.07Z"/>
      <path class="cls-1" d="m66.6,1350.24c0,16.16-.09,32.33.07,48.49.03,3.45-.9,4.76-4.48,4.64-6.83-.23-13.67-.29-20.49.03-4.49.21-5.63-1.48-5.6-5.78.2-31.16.18-62.33.2-93.5,0-6.84-.06-6.82-6.69-6.81-8.17,0-16.34-.2-24.5.02-4.02.11-5.28-1.42-5.08-5.26.28-5.32.39-10.67.14-15.99-.16-3.48.86-4.59,4.43-4.56,29.5.17,59,.13,88.5.2,10.27.02,10.27.08,10.22,10.19-.01,2.33-.06,4.67-.12,7-.21,8.58,1.48,8.43-8.32,8.35-7.83-.06-15.68.19-23.49-.19-4.22-.21-4.99,1.41-4.95,5.17.17,16,.07,32,.07,48h.1Z"/>
      <path class="cls-1" d="m1173.73,1350.1c0-15.98-.14-31.97.09-47.95.06-4.02-1.1-5.15-5.06-5.02-8.82.31-17.65.03-26.47.23-3.34.07-4.8-.82-4.63-4.44.28-5.98.27-11.99.09-17.98-.08-2.74.95-3.42,3.46-3.41,31.64.11,63.27.18,94.91.14,3.34,0,4.39,1.19,4.23,4.38-.28,5.65-.46,11.32-.36,16.97.06,3.54-1.36,4.61-4.74,4.51-8.32-.25-16.65-.22-24.97-.32-6.67-.08-6.71-.08-6.72,6.35-.04,31.47-.14,62.94,0,94.41.02,4.18-1.18,5.57-5.32,5.4-6.48-.27-13-.29-19.47.04-4.21.22-5.46-1.27-5.42-5.37.18-15.98.07-31.97.07-47.95.1,0,.2,0,.31,0Z"/>
      <path class="cls-1" d="m933.02,1516.6c.09,18.36-3.33,33.14-15.84,44.01-13.6,11.81-29.49,14.23-46.34,8.41-16.82-5.81-25.52-18.98-28.4-35.69-2.75-15.96-.98-31.61,8.47-45.54,16.91-24.93,56.89-24.62,73.44.49,6.17,9.36,8.85,19.65,8.67,28.32Zm-13.5,4.16c.06-5.95-.13-11.5-1.95-16.73-3.93-11.31-10.52-19.87-23.31-22.06-13.11-2.24-23.89,1.55-31.52,12.38-10.54,14.95-10.81,31.23-3.59,47.45,5.22,11.73,14.76,18.34,27.99,18.24,13-.1,22.64-6.04,28.34-17.82,3.33-6.88,4.28-14.3,4.04-21.46Z"/>
      <path class="cls-1" d="m756.32,1520.66c0-14.48.11-28.97-.07-43.45-.05-4.39,1.2-6.25,5.93-6.11,9.81.29,19.65-.3,29.44.66,12.12,1.19,20.63,8.52,23.31,19.94,2.69,11.46-2.25,23.12-12.38,29.22-1,.6-1.99,1.25-3.07,1.67-3.52,1.36-2.51,2.63-.5,4.91,10.32,11.66,17.4,25.5,25.36,38.74,1.13,1.88.33,3.01-1.86,3.5-7.73,1.75-10.77.54-14.8-6.23-5.36-9.01-10.55-18.11-16.21-26.95-4.86-7.6-12.25-7.82-19.77-7.91-3.01-.04-2.33,2.72-2.34,4.59-.06,9.82.02,19.65-.07,29.47-.06,6.81-4.46,9.56-10.81,6.98-2.76-1.12-2.09-3.56-2.1-5.57-.08-14.48-.04-28.97-.04-43.45h-.04Zm23.83-37.46c0,.06,0,.12,0,.17-2.33,0-4.65.07-6.98-.02-2.68-.11-3.97.95-3.96,3.76.04,8.31,0,16.61-.08,24.92-.03,3.29,1.28,4.87,4.73,4.8,5.32-.1,10.65.04,15.87-1.21,7.74-1.86,12.63-9,12.24-17.7-.36-7.85-5.62-13.37-13.85-14.35-2.63-.31-5.3-.27-7.96-.38Z"/>
      <path class="cls-1" d="m622.39,1539.95c0,6.32,0,12.65,0,18.97,0,2.94-1.21,5.1-3.96,6.35-16.51,7.56-33.25,9.39-50.19,1.57-11.32-5.23-18.35-14.64-21.76-26.12-7.69-25.87-.88-54.52,26.81-67.24,14.3-6.57,28.85-5.5,43.29-.25,3.01,1.1,5.3,11.26,3.26,13.8-1.38,1.73-2.73.21-3.93-.39-9.07-4.53-18.7-6.03-28.63-4.72-14.73,1.94-25.76,12.44-29.34,28.21-3.21,14.12-1.66,27.57,8.07,39.09,9.23,10.92,27.48,14.38,40.31,7.94,2.35-1.18,3.64-2.82,3.64-5.43.01-6.16-.07-12.33.03-18.49.05-3.12-1.54-4.06-4.34-4.01-4,.07-8-.08-11.99.03-4.44.13-4.57-2.74-4.56-5.99,0-3.11.22-5.58,4.42-5.51,8.16.14,16.32.04,24.48-.09,3.09-.05,4.63.97,4.55,4.3-.13,5.99-.04,11.99-.04,17.98-.04,0-.08,0-.12,0Z"/>
      <path class="cls-1" d="m711.51,1505.99c0-9.99.15-19.99-.07-29.98-.1-4.71,2.46-5.11,6.05-4.8,3.34.29,7.1-.8,7.02,4.98-.27,18.48-.09,36.98-.23,55.46-.05,7.02-.96,13.9-3.83,20.47-4.24,9.72-11.44,16.03-21.67,18.26-13.96,3.04-27.33,2.02-38-8.97-5.98-6.16-8.01-14.17-8.43-22.46-1.06-21.3-.32-42.63-.41-63.95-.02-4.58,3.01-3.93,5.82-3.84,3.31.11,6.65-.39,6.57,4.95-.25,16.99-.13,33.98-.1,50.97.01,5.5.4,10.98,1.92,16.32,3.13,10.98,10.59,16.64,21.98,16.6,11.66-.04,18.75-5.44,21.82-16.65.88-3.23,1.25-6.54,1.25-9.89,0-9.16,0-18.32,0-27.48.11,0,.22,0,.33,0Z"/>
      <path class="cls-1" d="m470.94,1520.05c0-14.66.1-29.31-.07-43.97-.04-3.73,1.28-4.94,4.92-4.9,13.49.16,26.98.13,40.47.08,2.81,0,5.39.27,4.57,3.91-.71,3.15,1.88,8.32-4.86,8.24-9.16-.1-18.32.34-27.47.24-3.93-.04-5.29,1.32-5.14,5.24.24,6.32.18,12.66-.03,18.98-.14,4.35,1.19,6.28,5.99,6.06,7.98-.36,15.99.11,23.97-.09,4.04-.1,5.16,1.49,5.01,5.33-.15,3.76-.39,6.39-5.33,6.17-7.81-.35-15.66.04-23.48-.19-4.33-.13-6.42,1.02-6.16,5.86.37,6.98.31,13.99.06,20.98-.17,4.69,1.45,6.5,6.29,6.4,9.65-.2,19.32.26,28.97.15,3.28-.04,4.87.97,4.27,4.23-.51,2.79,1.84,7.24-4.03,7.23-14.32-.02-28.65,0-42.97.17-4.22.05-4.91-2.15-4.89-5.65.09-14.82.04-29.64.04-44.47-.04,0-.09,0-.13,0Z"/>
      <path class="cls-1" d="m1010.63,1480.35c0,1-.11,2.01.02,2.99.4,3.11-.6,3.58-3.3,2.12-6.01-3.25-12.6-4.19-19.33-4.17-1.98,0-4,.29-5.92.77-6.56,1.64-12.01,5.12-13.21,12.1-1.17,6.8,3.38,11.26,8.72,14.48,5.69,3.44,11.73,6.32,17.51,9.62,3.03,1.73,6.02,3.62,8.7,5.82,8.41,6.9,13.51,15.4,10.5,26.67-3.07,11.54-11.45,17.69-22.7,19.98-9.99,2.03-19.92,1.01-29.58-2.17-5.93-1.95-9.36-9.94-6.5-15.36,1.62-3.08,3.54-.43,4.86.44,8.17,5.38,17.17,6.97,26.72,6.24,2.33-.18,4.63-.62,6.73-1.74,8.59-4.61,10.34-14.55,3.85-21.87-4.66-5.25-10.98-8.03-17-11.23-4.86-2.58-9.74-5.11-14.08-8.54-8.37-6.63-12.8-14.95-10.26-25.8,2.5-10.7,10.18-16.53,20.15-19.51,8.26-2.46,16.72-2.66,25.22-.9,8.46,1.75,8.48,1.66,8.89,10.04Z"/>
      <path class="cls-1" d="m384.02,1558.46c0-.5,0-1,0-1.5,0-1.63-.9-3.76.61-4.7,1.83-1.14,3.32.88,4.79,1.8,9.07,5.67,18.89,7.18,29.24,5.08,5.34-1.08,9.67-4.03,11.19-9.55,1.54-5.6-.15-10.43-4.54-14.4-4.77-4.31-10.46-7.09-16.02-10.06-4.86-2.59-9.62-5.29-14-8.65-8.45-6.47-12.18-14.9-9.97-25.42,2.17-10.3,9.2-16.45,18.8-19.51,9.88-3.15,19.92-3.14,30.03-.32,3.94,1.1,5.65,2.98,5.29,6.96-.12,1.32-.07,2.67.03,3.99.35,4.41-1.03,4.49-4.81,2.77-8.87-4.03-18.21-5.44-27.61-1.75-10.62,4.17-12.61,14.79-4.39,22.73,3.65,3.52,8.19,5.67,12.66,7.91,7,3.51,13.97,7.04,19.76,12.49,13.62,12.81,10.72,33.53-6.25,41.45-13.64,6.37-27.57,4.8-41.27-.4-4.34-1.65-3.6-5.46-3.53-8.93Z"/>
    </g>
  </g>
</svg>