<?xml version="1.0" encoding="UTF-8"?>
<svg id="Capa_2" data-name="Capa 2" xmlns="http://www.w3.org/2000/svg" viewBox="0 0 1166.78 183.71">
  <defs>
    <style>
      .cls-1 {
        fill: #fff;
      }
    </style>
  </defs>
  <g id="Capa_1-2" data-name="Capa 1">
    <g>
      <path class="cls-1" d="m385.23,64.02c-6.83,13.5-13.66,26.93-20.42,40.41-6.06,12.09-12.03,24.22-18.06,36.32-.63,1.27-1,3.02-2.88,2.92-1.69-.09-2.52-1.57-3.03-2.92-2.42-6.38-4.78-12.79-7.06-19.22-5.39-15.17-12.36-29.73-18.27-44.69-1.21-3.05-4.11-5.08-5.12-8.65-1.97,1.32-2.2,3.08-2.47,4.73-2.62,15.86-4.24,31.82-5,47.85-.4,8.35,3.11,12.75,11.29,15.48.94.31,1.88.69,2.72,1.19,1.33.8,2.36,1.89,2.02,3.58-.37,1.83-1.93,2.26-3.44,2.13-11.31-.98-22.63.39-33.93-.29-1.46-.09-3.22.16-3.47-1.89-.21-1.73,1.04-2.96,2.44-3.31,11.51-2.91,11.79-12.2,12.89-21.09,2.63-21.08,4.35-42.24,5.95-63.41.75-9.95-.91-11.94-10.67-15.26-2.19-.74-4.35-1.62-6.39-2.67-1.2-.61-1.97-1.84-1.69-3.27.33-1.66,1.8-1.79,3.14-1.73,9.48.36,18.96.75,28.44,1.19,2.87.13,3.76,2.25,4.49,4.52,8.27,25.7,19.44,50.31,30.09,75.11.63,1.48,1.16,3.66,2.81,3.69,2.1.05,2.33-2.44,3.09-3.95,8.58-17.18,17.07-34.4,25.62-51.6,3.7-7.44,7.64-14.79,9.03-23.06.55-3.28,2.36-4.81,5.76-4.76,7.35.1,14.62-.89,21.91-1.51,1.79-.15,3.96-.55,4.63,1.72.74,2.53-.98,3.91-3.15,4.79-2.61,1.06-5.17,2.41-7.9,3.01-5.72,1.26-7.04,4.9-7.11,10.03-.16,12.66.86,25.27,1.52,37.9.64,12.3,1.64,24.59,2.57,36.87.52,6.95,3.3,10.02,10.31,11.86,2.92.77,7.37.78,6.88,4.72-.43,3.49-4.74,2.19-7.26,2.26-11.49.32-22.99.27-34.48.32-1.32,0-2.65-.22-3.97-.43-1-.15-1.99-.44-2.34-1.53-.43-1.33.4-2.25,1.37-2.85,1.25-.77,2.63-1.44,4.05-1.83,5.87-1.63,8.25-5.49,8.15-11.24-.13-8.11.1-16.22-.18-24.32-.38-11.34-1.07-22.67-1.67-34-.06-1.05.28-2.32-1.17-3.13Z"/>
      <path class="cls-1" d="m683.94,183.68c-11.63.56-23.65-5.72-35.33-13.35-14.88-9.72-28.29-21.71-44.96-28.67-11.08-4.62-20.13-11.74-26.77-21.14-14.14-20.02-13.85-41.32-2.19-62.07,11.75-20.92,30.55-30.94,55.32-29.39,24.39,1.53,41.65,13.75,50.44,35.41,9.21,22.68,4.27,43.94-11.9,62.57-5.3,6.1-12.23,10.37-18.81,15-5.03,3.54-5.23,4.33-.87,8.37,6.53,6.05,13.42,11.61,21.39,15.86,11.49,6.12,23.55,7.54,36.24,4.8,1.73-.37,3.74-1.45,4.94.64,1.35,2.37-.34,3.92-2.08,5.33-6.52,5.3-14.25,6.68-25.42,6.66Zm-99.14-102.6c.39,12.92,2.32,25.88,9.94,37.28,7.11,10.64,16.64,17.86,30.5,16.78,6.54-.51,13.03-1.42,19.56-2.86,8.97-1.98,18.37-14.9,19.51-23.81,1.57-12.35.79-24.53-1.31-36.7-3-17.43-14.79-32.64-35.34-34.01-4.08-.27-7.92.87-11.84,1.31-10.44,1.17-19.41,5-24.66,14.92-4.48,8.47-6.1,17.39-6.36,27.09Z"/>
      <path class="cls-1" d="m935.35,58.36c-.23,1.43-.42,2.05-.43,2.68-.38,21.39-.81,42.78-1.07,64.18-.06,4.94,3.39,8.71,8.23,10.33,2.96.99,7.9,1.19,6.97,5.33-.82,3.66-5.35,1.87-8.32,1.93-8.82.17-17.64.3-26.46.32-2.17,0-5.27.85-5.93-2.04-.7-3.04,2.18-4.1,4.6-4.76,6.31-1.72,8.72-6.18,8.93-12.01.79-22.17.67-44.41,2.53-66.5.92-10.97-4.14-15.74-12.94-19.42-2.42-1.01-5.07-1.77-6.78-3.94-.71-.89-1.41-1.94-.91-3.13.53-1.26,1.8-1.28,2.98-1.26,8.83.13,17.66.27,26.48.43,3.22.06,5.05,2.24,6.77,4.46,16.06,20.71,33.65,40.2,50.4,60.36,5.23,6.3,10.67,12.44,16.04,18.63.92,1.06,1.66,2.77,3.53,2.02,1.5-.6,1.25-2.16,1.25-3.43.06-21.72.07-43.45.18-65.17.02-4.8-3.33-6.75-6.99-8.51-2.83-1.36-5.78-2.48-8.59-3.86-1.05-.51-1.88-1.52-1.42-2.81.39-1.1,1.56-1.1,2.53-1.14,2.66-.11,5.34-.37,7.97-.16,9.02.72,17.97-.49,26.94-.84,1.99-.08,4.25-.48,4.62,2.34.32,2.48-1.05,3.87-3.39,4.69-12.16,4.27-12.21,4.29-12.22,16.89-.02,28.05.03,56.09.02,84.14,0,7.39-1.7,8.27-8.41,4.74-5.27-2.77-9.04-7.05-12.77-11.44-13.17-15.48-25.86-31.36-39.94-46.07-7.82-8.18-16.13-15.91-22.4-25.38-.33-.49-.96-.79-2-1.61Z"/>
      <path class="cls-1" d="m459.9,142.69c-6.33,0-12.65.04-18.98-.03-1.61-.02-3.62.06-3.93-2.11-.33-2.3,1.26-3.53,3.23-4.34,3.78-1.56,8.09-1.87,11.14-5.11,5.31-5.65,7.89-12.66,10.88-19.51,10.74-24.6,20.12-49.71,29.21-74.92.92-2.57,3.17-3.6,5.35-4.8,1.66-.91,3.16-2.23,2.75-4.22-.46-2.23-2.5-1.73-4.1-1.48-3.1.47-3.27-1.31-2.21-3.12,4.38-7.44,8.78-14.94,14.85-21.21,3.04-3.14,11.22-1.97,13.57,1.52,1.58,2.35.18,3.94-1.68,5.32-4.63,3.44-9.17,7-13.93,10.27-2.94,2.02-3.5,4.4-2.55,7.57,9.44,31.74,20.98,62.8,32.16,93.98,2.89,8.06,7.73,14.31,17.41,15.38,2.26.25,4.88,1.26,4.34,4.29-.49,2.73-3.06,2.52-5.22,2.63-12.81.65-25.62.77-38.42-.21-1.33-.1-2.68-.12-3.97-.39-1.91-.4-4.23-.57-4.32-3.19-.09-2.49,1.84-3.46,3.91-3.61,11.72-.86,12.6-4.77,9.74-16.56-1.14-4.72-2.91-9.29-4.09-14-.98-3.94-3.4-5.02-7.3-4.87-8.97.35-17.96.49-26.94.57-2.93.03-4.6,1.07-5.39,3.91-1.73,6.25-3.79,12.42-5.51,18.67-1.61,5.88.63,9.72,6.49,11.62,1.26.41,2.6.58,3.84,1.04,1.83.67,3.25,1.91,3.17,3.93-.1,2.37-2.19,2.73-4.01,2.76-6.49.11-12.99.04-19.48.04v.21Zm36.46-92.49c-5.35,13.72-10.36,26.52-15.31,39.35-.78,2.02.02,3.02,2.34,2.99,7.83-.09,15.65-.11,23.48-.13,2.89,0,3.33-1.24,2.41-3.73-1.57-4.26-2.86-8.62-4.3-12.93-2.77-8.25-5.56-16.49-8.61-25.55Z"/>
      <path class="cls-1" d="m716.43,77.3c0-9.08-.05-18.16.02-27.24.05-6.33-2.37-10.99-8.77-13.23-.93-.33-1.83-.78-2.69-1.26-1.42-.81-2.29-2.1-1.85-3.65.42-1.51,2-1.5,3.34-1.55,1.16-.05,2.34-.13,3.5,0,9.65,1.01,19.29.66,28.94.03,2.16-.14,5.15-.93,5.87,2.15.68,2.91-1.91,3.89-4.16,4.56-5.45,1.63-7.71,5.6-7.81,10.66-.35,18.97-.99,37.95.1,56.9.57,9.96,4.73,18.62,13.69,24.2,11.89,7.41,25.01,8.33,37.11,2.06,11.82-6.12,15.85-17.43,15.55-30.49-.36-15.55.05-31.12.16-46.68.05-7.3-1.19-13.92-8.76-17.69-1.44-.72-2.9-2.06-2.33-3.92.62-2.02,2.69-1.72,4.25-1.62,9.67.6,19.31.06,28.96-.41,1.68-.08,3.55-.31,3.87,1.97.27,1.93-.4,3.99-2.41,4.3-11.36,1.77-10.64,10.55-11.1,18.27-.93,15.37-1.17,30.78-2.09,46.15-1.5,25.14-16.04,39.74-39.93,43.71-26.32,4.38-49.2-6.87-52.64-38.52-1.03-9.52-.73-19.11-.81-28.67Z"/>
      <path class="cls-1" d="m1142.27,142.43c-7.16,0-14.32.13-21.48-.08-2.31-.07-5.58.06-5.78-3.3-.2-3.32,2.78-3.41,5.26-3.9,8.9-1.77,10.14-3.67,8.09-12.41-1.33-5.67-2.04-11.49-4.44-16.92-1.62-3.66-3.96-5.46-8.36-5.49-8.48-.05-16.94-.68-25.44.16-3.3.33-5.19,1.49-6.07,4.61-1.76,6.24-4.4,12.26-5.34,18.7-.98,6.77.75,9.07,7.46,11.01,1.41.41,2.88.88,4.08,1.67,1.29.84,1.91,2.29,1.62,3.85-.34,1.81-1.91,2.17-3.44,2.18-12.49.1-24.97.15-37.46.18-1.67,0-3.5-.09-3.91-2.2-.39-2.03.78-3.37,2.42-4.4.28-.17.58-.38.89-.43,11.51-1.61,15.26-10.49,18.85-19.32,10.22-25.15,20.51-50.27,30.27-75.59,2.39-6.19,7.95-9.38,11.54-14.38,1.56-2.18,2.48,1.42,2.91,2.73,2.61,8.02,4.87,16.15,7.55,24.15,7.85,23.4,15.11,46.99,24.47,69.88,2.81,6.87,7.45,11.84,15.6,12.63.96.09,1.95.5,2.78.99,1.45.86,2.76,1.96,2.34,3.9-.47,2.12-2.28,2.12-3.94,2.13-6.83.04-13.66.02-20.48.02,0-.13,0-.25,0-.38Zm-35.87-92c-.37.03-.73.07-1.1.1-1.23,3.3-2.4,6.62-3.7,9.89-3.66,9.18-7.34,18.35-11.08,27.5-1.41,3.45-.85,5,3.45,4.79,6.96-.33,13.95-.4,20.91-.19,4.37.14,4.71-1.49,3.38-4.89-1.35-3.45-2.44-7-3.55-10.53-2.8-8.89-5.55-17.79-8.32-26.68Z"/>
      <path class="cls-1" d="m199.93,142.29c-7.66,0-15.31.11-22.96-.08-1.98-.05-4.78-.07-4.96-2.98-.19-3.04,2.39-3.4,4.73-3.94,10.45-2.42,11.38-3.85,8.77-14.14-1.43-5.65-3.18-11.24-4.75-16.86-.81-2.88-2.62-4.35-5.77-4.29-9.63.16-19.27.25-28.9.42-2.56.05-3.74,1.75-4.49,3.9-2.35,6.74-4.83,13.45-6.06,20.51-.91,5.24.65,7.83,5.85,9.57.31.11.66.13.96.26,2.82,1.23,7.93.64,7.18,5.07-.63,3.7-5.18,2.53-8.1,2.6-11.15.26-22.31.31-33.47.31-1.8,0-4.49.69-4.86-2.08-.32-2.4,1.48-4.09,3.74-4.49,11.4-2.02,15.38-10.79,19.4-19.68,11-24.32,20.75-49.13,29.79-74.18,2.27-6.28,6.85-10.65,11.05-15.27,2-2.19,3.12,1.28,3.64,2.82,2.4,7.07,4.51,14.23,6.83,21.33,7.62,23.3,15.62,46.48,24.3,69.43,3.05,8.07,7.88,14.18,17.34,15.61,2.54.39,5.12,1.74,4.59,4.76-.51,2.93-3.35,1.96-5.39,1.98-6.16.04-12.31.01-18.47.01,0-.2,0-.39,0-.59Zm-39.21-49.62c0-.09,0-.18,0-.27,3.99,0,7.99.01,11.98,0,1.76,0,2.66-.36,2.23-2.59-2.21-11.63-7.39-22.38-10.43-33.75-.29-1.08-.62-2.4-1.91-2.63-1.63-.29-1.69,1.24-2.08,2.24-4.33,11.03-8.57,22.09-12.99,33.08-1.16,2.9-.85,4.19,2.71,3.99,3.48-.2,6.98-.04,10.48-.04Z"/>
      <path class="cls-1" d="m44.51,143.2c-11.82,0-23.64.01-35.46-.01-2,0-4-.09-5.98-.24-1.32-.1-2.76-.22-3.02-1.94-.21-1.42.4-2.51,1.49-3.4,2.26-1.86,5.15-2.22,7.81-3.09,4.48-1.46,5.94-4.29,5.95-8.85.02-23.98.34-47.95.56-71.93.01-1.3.17-2.59.14-3.88q-.27-9.47-9.58-12.55c-1.1-.37-2.22-.72-3.24-1.25-1.57-.81-2.7-2.11-2.4-3.91.37-2.24,2.41-1.97,3.99-1.88,14.32.77,28.63.45,42.94-.23,1.69-.08,3.5-.04,3.93,2.09.46,2.27-.66,3.89-2.79,4.54-3.64,1.12-7.33,2.17-11.08,2.92-3.65.73-5.48,2.55-5.54,6.25-.09,5.83-.49,11.66-.51,17.49-.06,19.78-.02,39.56,0,59.34.01,8.85,2.8,11.58,11.87,11.63,7.66.04,15.35-.33,22.98.12,6.83.41,11.52-2.5,15.22-7.51,2.32-3.15,4.23-6.59,6.48-9.79,1.18-1.68,2.51-4.15,4.98-3.17,2.63,1.04,1.39,3.62.94,5.58-1.28,5.69-3.21,11.31-3.88,17.06-.63,5.48-3.62,6.53-8.38,6.49-12.48-.11-24.96-.04-37.44-.04,0,.05,0,.11,0,.16Z"/>
      <path class="cls-1" d="m864.83,143.5c-6.83,0-13.66.05-20.49-.03-2.07-.03-4.78.29-5.01-2.69-.19-2.51,1.89-3.6,4.05-4.28,1.42-.45,2.91-.71,4.35-1.12,6.52-1.87,7.85-3.88,7.87-10.46.1-24.63-.7-49.28.53-73.9.39-7.78-1.87-10.91-9.25-13.16-1.27-.39-2.53-.83-3.77-1.29-2.1-.78-3.46-2.28-3.01-4.46.43-2.12,2.57-1.76,4.14-1.72,13.66.33,27.31.37,40.97-.16,1.79-.07,3.94-.32,4.28,2.2.3,2.28-1.09,3.62-3.16,4.36-.78.28-1.57.52-2.38.72-10.2,2.59-11.2,3.64-11.27,13.99-.16,23.51-.2,47.01-.19,70.52,0,8.69,1.89,11,10.23,13.81,3.01,1.02,7.94,1.43,7.23,5.23-.77,4.09-5.55,2.06-8.65,2.14-5.49.14-10.99.04-16.48.04v.26Z"/>
    </g>
  </g>
</svg>